<svg width="550" height="241" viewBox="0 0 550 241" fill="none" xmlns="http://www.w3.org/2000/svg">
<path d="M311.864 212.863H336.465C337.166 212.863 337.517 213.214 337.517 213.916V218.631C337.517 219.333 337.166 219.684 336.465 219.684H314.169C312.716 219.684 312.165 220.236 312.165 221.389V222.042C312.165 223.045 312.716 223.647 314.169 223.647H330.803C336.415 223.647 338.72 226.054 338.72 230.568V233.578C338.72 237.941 336.715 240.75 330.753 240.75H304.95C304.248 240.75 303.897 240.399 303.897 239.697V234.982C303.897 234.28 304.248 233.929 304.95 233.929H328.448C329.901 233.929 330.503 233.377 330.503 232.173V230.869C330.503 229.916 329.901 229.314 328.448 229.314H311.814C306.202 229.314 303.897 226.907 303.897 222.342V219.935C303.897 215.672 305.902 212.863 311.864 212.863Z" fill="white"/>
<path d="M271.044 212.863H285.574C294.693 212.863 297.599 215.772 297.599 223.145V239.446C297.599 240.299 297.148 240.75 296.296 240.75H290.434C289.582 240.75 289.131 240.299 289.131 239.446V225.201C289.131 221.44 288.68 220.386 285.073 220.386H271.895C268.288 220.386 267.436 221.44 267.436 225.201V239.446C267.436 240.299 266.985 240.75 266.133 240.75H260.271C259.419 240.75 258.969 240.299 258.969 239.446V223.145C258.969 215.772 261.925 212.863 271.044 212.863Z" fill="white"/>
<path d="M226.047 212.863H240.376C249.495 212.863 252.401 215.772 252.401 223.145V230.468C252.401 237.841 249.495 240.75 240.376 240.75H226.047C216.928 240.75 213.972 237.841 213.972 230.468V223.145C213.972 215.772 216.928 212.863 226.047 212.863ZM222.439 224.65V228.963C222.439 232.775 223.291 233.828 226.898 233.828H239.525C243.132 233.828 243.934 232.775 243.934 228.963V224.65C243.934 220.788 243.132 219.784 239.525 219.784H226.898C223.291 219.784 222.439 220.788 222.439 224.65Z" fill="white"/>
<path d="M200.191 212.863H206.003C206.905 212.863 207.356 213.264 207.356 214.167V239.446C207.356 240.299 206.905 240.75 206.003 240.75H200.191C199.289 240.75 198.888 240.299 198.888 239.446V214.167C198.888 213.264 199.289 212.863 200.191 212.863ZM200.191 202.38H206.053C206.905 202.38 207.356 202.832 207.356 203.684V208.6C207.356 209.502 206.905 209.904 206.053 209.904H200.191C199.339 209.904 198.888 209.502 198.888 208.6V203.684C198.888 202.832 199.339 202.38 200.191 202.38Z" fill="white"/>
<path d="M171.729 212.863H176.388V206.292C176.388 205.389 176.789 204.988 177.691 204.988H183.503C184.405 204.988 184.806 205.389 184.806 206.292V212.863H192.722C193.424 212.863 193.774 213.214 193.774 213.916V218.781C193.774 219.484 193.424 219.835 192.722 219.835H184.806V230.618C184.806 232.725 185.557 233.778 188.062 233.778H193.023C193.724 233.778 194.075 234.129 194.075 234.832V239.697C194.075 240.399 193.724 240.75 193.023 240.75H186.609C178.543 240.75 176.388 237.841 176.388 230.618V219.835H171.729C171.027 219.835 170.676 219.484 170.676 218.781V213.916C170.676 213.214 171.027 212.863 171.729 212.863Z" fill="white"/>
<path d="M133.098 212.863H154.793C163.912 212.863 166.868 215.772 166.868 223.145V236.687C166.868 239.998 166.066 240.75 163.16 240.75H139.06C133.048 240.75 131.194 238.593 131.194 233.527V230.919C131.194 226.706 133.048 224.299 139.06 224.299H158.4V223.496C158.4 220.938 157.548 219.935 153.941 219.935H133.098C132.396 219.935 132.046 219.584 132.046 218.882V213.916C132.046 213.214 132.396 212.863 133.098 212.863ZM157.148 234.23C158.05 234.23 158.4 233.828 158.4 232.825V229.515H141.515C140.062 229.515 139.511 230.167 139.511 231.371V232.324C139.511 233.628 140.062 234.23 141.515 234.23H157.148Z" fill="white"/>
<path d="M105.186 212.863H109.846V206.292C109.846 205.389 110.247 204.988 111.149 204.988H116.961C117.863 204.988 118.264 205.389 118.264 206.292V212.863H126.18C126.881 212.863 127.232 213.214 127.232 213.916V218.781C127.232 219.484 126.881 219.835 126.18 219.835H118.264V230.618C118.264 232.725 119.015 233.778 121.52 233.778H126.481C127.182 233.778 127.533 234.129 127.533 234.832V239.697C127.533 240.399 127.182 240.75 126.481 240.75H120.067C112.001 240.75 109.846 237.841 109.846 230.618V219.835H105.186C104.485 219.835 104.134 219.484 104.134 218.781V213.916C104.134 213.214 104.485 212.863 105.186 212.863Z" fill="white"/>
<path d="M92.2075 212.863H98.0196C98.9215 212.863 99.3724 213.264 99.3724 214.167V239.446C99.3724 240.299 98.9215 240.75 98.0196 240.75H92.2075C91.3057 240.75 90.9048 240.299 90.9048 239.446V214.167C90.9048 213.264 91.3057 212.863 92.2075 212.863ZM92.2075 202.38H98.0697C98.9215 202.38 99.3724 202.832 99.3724 203.684V208.6C99.3724 209.502 98.9215 209.904 98.0697 209.904H92.2075C91.3558 209.904 90.9048 209.502 90.9048 208.6V203.684C90.9048 202.832 91.3558 202.38 92.2075 202.38Z" fill="white"/>
<path d="M46.0479 212.863H71.8513C80.9702 212.863 83.9264 215.772 83.9264 223.145V239.446C83.9264 240.299 83.4754 240.75 82.6237 240.75H76.7615C75.9098 240.75 75.4588 240.299 75.4588 239.446V225.201C75.4588 221.44 75.0079 220.386 71.4004 220.386H63.1834V239.446C63.1834 240.299 62.7324 240.75 61.8807 240.75H56.0185C55.1668 240.75 54.7158 240.299 54.7158 239.446V220.386H46.8996C43.2922 220.386 42.4404 221.44 42.4404 225.201V239.446C42.4404 240.299 41.9895 240.75 41.1377 240.75H35.2755C34.4238 240.75 33.9728 240.299 33.9728 239.446V223.145C33.9728 215.772 36.929 212.863 46.0479 212.863Z" fill="white"/>
<path d="M19.8917 212.863H25.7037C26.6056 212.863 27.0565 213.264 27.0565 214.167V239.446C27.0565 240.299 26.6056 240.75 25.7037 240.75H19.8917C18.9898 240.75 18.589 240.299 18.589 239.446V214.167C18.589 213.264 18.9898 212.863 19.8917 212.863ZM19.8917 202.38H25.7538C26.6056 202.38 27.0565 202.832 27.0565 203.684V208.6C27.0565 209.502 26.6056 209.904 25.7538 209.904H19.8917C19.0399 209.904 18.589 209.502 18.589 208.6V203.684C18.589 202.832 19.0399 202.38 19.8917 202.38Z" fill="white"/>
<path d="M4.35751 203.132H10.1696C11.0714 203.132 11.5224 203.584 11.5224 204.437V239.446C11.5224 240.299 11.0714 240.75 10.1696 240.75H4.35751C3.45564 240.75 3.05481 240.299 3.05481 239.446V204.437C3.05481 203.584 3.45564 203.132 4.35751 203.132Z" fill="white"/>
<path d="M237.832 145.653H242.492V139.082C242.492 138.179 242.893 137.778 243.795 137.778H249.607C250.509 137.778 250.91 138.179 250.91 139.082V145.653H258.826C259.527 145.653 259.878 146.004 259.878 146.706V151.571C259.878 152.274 259.527 152.625 258.826 152.625H250.91V163.408C250.91 165.515 251.661 166.568 254.166 166.568H259.127C259.828 166.568 260.179 166.919 260.179 167.621V172.487C260.179 173.189 259.828 173.54 259.127 173.54H252.713C244.647 173.54 242.492 170.631 242.492 163.408V152.625H237.832C237.131 152.625 236.78 152.274 236.78 151.571V146.706C236.78 146.004 237.131 145.653 237.832 145.653Z" fill="white"/>
<path d="M195.199 145.653H201.061C201.913 145.653 202.364 146.054 202.364 146.957V161.151C202.364 164.963 202.815 166.016 206.422 166.016H219.249C222.856 166.016 223.658 164.963 223.658 161.151V146.957C223.658 146.054 224.109 145.653 224.961 145.653H230.823C231.674 145.653 232.125 146.054 232.125 146.957V163.258C232.125 170.631 229.219 173.54 220.1 173.54H205.971C196.852 173.54 193.896 170.631 193.896 163.258V146.957C193.896 146.054 194.347 145.653 195.199 145.653Z" fill="white"/>
<path d="M160.974 145.653H175.304C184.423 145.653 187.329 148.562 187.329 155.935V163.258C187.329 170.631 184.423 173.54 175.304 173.54H160.974C151.855 173.54 148.899 170.631 148.899 163.258V155.935C148.899 148.562 151.855 145.653 160.974 145.653ZM157.367 157.44V161.753C157.367 165.565 158.219 166.618 161.826 166.618H174.452C178.06 166.618 178.861 165.565 178.861 161.753V157.44C178.861 153.578 178.06 152.574 174.452 152.574H161.826C158.219 152.574 157.367 153.578 157.367 157.44Z" fill="white"/>
<path d="M105.467 135.922H111.28C112.181 135.922 112.632 136.374 112.632 137.226V145.653H130.369C139.488 145.653 142.394 148.562 142.394 155.935V172.236C142.394 173.089 141.943 173.54 141.091 173.54H135.229C134.377 173.54 133.926 173.089 133.926 172.236V157.991C133.926 154.23 133.476 153.176 129.868 153.176H112.632V172.236C112.632 173.089 112.181 173.54 111.28 173.54H105.467C104.566 173.54 104.165 173.089 104.165 172.236V137.226C104.165 136.374 104.566 135.922 105.467 135.922Z" fill="white"/>
<path d="M77.0049 145.653H81.6646V139.082C81.6646 138.179 82.0654 137.778 82.9673 137.778H88.7793C89.6812 137.778 90.082 138.179 90.082 139.082V145.653H97.9984C98.6999 145.653 99.0506 146.004 99.0506 146.706V151.571C99.0506 152.274 98.6999 152.625 97.9984 152.625H90.082V163.408C90.082 165.515 90.8336 166.568 93.3388 166.568H98.2991C99.0005 166.568 99.3513 166.919 99.3513 167.621V172.487C99.3513 173.189 99.0005 173.54 98.2991 173.54H91.8858C83.8191 173.54 81.6646 170.631 81.6646 163.408V152.625H77.0049C76.3035 152.625 75.9528 152.274 75.9528 151.571V146.706C75.9528 146.004 76.3035 145.653 77.0049 145.653Z" fill="white"/>
<path d="M64.0261 145.653H69.8381C70.74 145.653 71.1909 146.054 71.1909 146.957V172.236C71.1909 173.089 70.74 173.54 69.8381 173.54H64.0261C63.1242 173.54 62.7234 173.089 62.7234 172.236V146.957C62.7234 146.054 63.1242 145.653 64.0261 145.653ZM64.0261 135.17H69.8882C70.74 135.17 71.1909 135.621 71.1909 136.474V141.389C71.1909 142.292 70.74 142.694 69.8882 142.694H64.0261C63.1743 142.694 62.7234 142.292 62.7234 141.389V136.474C62.7234 135.621 63.1743 135.17 64.0261 135.17Z" fill="white"/>
<path d="M1.75215 145.653H8.56627C9.31783 145.653 9.71866 145.954 9.86897 146.505L15.4806 166.418C15.5307 166.618 15.681 166.719 15.8814 166.719H16.0818C16.3324 166.719 16.4326 166.668 16.5328 166.418L22.2446 148.311C22.896 146.205 23.8479 145.653 25.802 145.653H32.8666C34.8708 145.653 35.8228 146.205 36.4741 148.311L42.1358 166.418C42.1859 166.668 42.3363 166.719 42.5367 166.719H42.7872C42.9375 166.719 43.1379 166.618 43.188 166.418L48.7997 146.505C48.95 145.954 49.3508 145.653 50.1024 145.653H56.9666C57.9186 145.653 58.119 146.205 57.8685 147.007L50.9541 169.929C50.0523 172.838 49.0001 173.54 46.5951 173.54H39.0294C37.1255 173.54 36.2236 172.788 35.3217 169.929L29.7602 152.775C29.7101 152.524 29.5598 152.424 29.4095 152.424H29.1088C28.9084 152.424 28.8082 152.524 28.7581 152.775L23.2467 169.929C22.3448 172.788 21.443 173.54 19.4889 173.54H11.9232C9.56835 173.54 8.41596 172.838 7.56419 169.929L0.800172 147.007C0.599757 146.205 0.750068 145.653 1.75215 145.653Z" fill="white"/>
<path d="M522.868 78.4428H547.469C548.17 78.4428 548.521 78.7939 548.521 79.4961V84.2108C548.521 84.913 548.17 85.2641 547.469 85.2641H525.173C523.72 85.2641 523.168 85.8158 523.168 86.9694V87.6215C523.168 88.6246 523.72 89.2265 525.173 89.2265H541.807C547.419 89.2265 549.723 91.634 549.723 96.1481V99.1575C549.723 103.521 547.719 106.33 541.757 106.33H515.953C515.252 106.33 514.901 105.979 514.901 105.277V100.562C514.901 99.8597 515.252 99.5086 515.953 99.5086H539.452C540.905 99.5086 541.506 98.9569 541.506 97.7531V96.4491C541.506 95.4961 540.905 94.8942 539.452 94.8942H522.818C517.206 94.8942 514.901 92.4867 514.901 87.9224V85.5149C514.901 81.2516 516.905 78.4428 522.868 78.4428Z" fill="white"/>
<path d="M495.699 78.4428H509.728C510.429 78.4428 510.78 78.7939 510.78 79.4961V84.4616C510.78 85.1638 510.429 85.5149 509.728 85.5149H496.55C492.943 85.5149 492.091 86.5682 492.091 90.3801V105.026C492.091 105.879 491.64 106.33 490.788 106.33H484.926C484.074 106.33 483.624 105.879 483.624 105.026V88.7249C483.624 81.3519 486.58 78.4428 495.699 78.4428Z" fill="white"/>
<path d="M454.061 78.4428H468.892C475.807 78.4428 477.66 80.5995 477.66 86.7186V91.8848C477.66 94.0415 476.759 94.7437 474.754 94.7437H450.454V95.6465C450.454 98.2045 451.306 99.2077 454.913 99.2077H475.756C476.458 99.2077 476.809 99.5588 476.809 100.261V105.277C476.809 105.979 476.458 106.33 475.756 106.33H454.061C444.943 106.33 441.986 103.421 441.986 96.0478V88.7249C441.986 81.3519 444.943 78.4428 454.061 78.4428ZM450.454 88.5243V89.5776H468.692C469.143 89.5776 469.393 89.3769 469.393 88.8754V87.0196C469.393 85.5149 468.792 84.913 467.239 84.913H454.913C451.306 84.913 450.454 85.9663 450.454 88.5243Z" fill="white"/>
<path d="M404.05 68.7124H409.912C410.764 68.7124 411.215 69.1638 411.215 70.0164V89.0259H419.783C421.887 89.0259 422.488 88.8754 423.49 87.4208L429.002 79.3958C429.503 78.6936 429.854 78.4428 430.755 78.4428H437.519C438.321 78.4428 438.622 79.1951 438.071 79.9475L431.557 89.0259C430.705 90.2296 429.853 91.1826 428.902 91.9349C430.154 92.7374 431.206 93.7406 432.108 94.9945L439.223 104.875C439.674 105.578 439.323 106.33 438.521 106.33H431.757C430.755 106.33 430.455 106.129 430.004 105.527L424.041 97.0509C423.089 95.7469 422.388 95.3958 420.384 95.3958H411.215V105.026C411.215 105.879 410.764 106.33 409.912 106.33H404.05C403.198 106.33 402.747 105.879 402.747 105.026V70.0164C402.747 69.1638 403.198 68.7124 404.05 68.7124Z" fill="white"/>
<path d="M362.914 78.4428H384.609C393.728 78.4428 396.684 81.3519 396.684 88.7249V102.267C396.684 105.578 395.882 106.33 392.976 106.33H368.876C362.864 106.33 361.01 104.173 361.01 99.1074V96.4992C361.01 92.286 362.864 89.8785 368.876 89.8785H388.216V89.076C388.216 86.518 387.365 85.5149 383.757 85.5149H362.914C362.212 85.5149 361.862 85.1638 361.862 84.4616V79.4961C361.862 78.7939 362.212 78.4428 362.914 78.4428ZM386.964 99.8096C387.866 99.8096 388.216 99.4083 388.216 98.4052V95.0948H371.331C369.878 95.0948 369.327 95.7469 369.327 96.9506V97.9036C369.327 99.2077 369.878 99.8096 371.331 99.8096H386.964Z" fill="white"/>
<path d="M332.45 78.4428H347.281C354.195 78.4428 356.049 80.5995 356.049 86.7186V91.8848C356.049 94.0415 355.147 94.7437 353.143 94.7437H328.843V95.6465C328.843 98.2045 329.694 99.2077 333.302 99.2077H354.145C354.846 99.2077 355.197 99.5588 355.197 100.261V105.277C355.197 105.979 354.846 106.33 354.145 106.33H332.45C323.331 106.33 320.375 103.421 320.375 96.0478V88.7249C320.375 81.3519 323.331 78.4428 332.45 78.4428ZM328.843 88.5243V89.5776H347.08C347.531 89.5776 347.782 89.3769 347.782 88.8754V87.0196C347.782 85.5149 347.181 84.913 345.627 84.913H333.302C329.694 84.913 328.843 85.9663 328.843 88.5243Z" fill="white"/>
<path d="M288.022 78.4428H302.552C311.671 78.4428 314.577 81.3519 314.577 88.7249V105.026C314.577 105.879 314.126 106.33 313.274 106.33H307.412C306.56 106.33 306.11 105.879 306.11 105.026V90.7813C306.11 87.0196 305.659 85.9663 302.051 85.9663H288.874C285.266 85.9663 284.415 87.0196 284.415 90.7813V105.026C284.415 105.879 283.964 106.33 283.112 106.33H277.25C276.398 106.33 275.947 105.879 275.947 105.026V88.7249C275.947 81.3519 278.903 78.4428 288.022 78.4428Z" fill="white"/>
<path d="M243.071 78.4428H267.672C268.373 78.4428 268.724 78.7939 268.724 79.4961V84.2108C268.724 84.913 268.373 85.2641 267.672 85.2641H245.376C243.923 85.2641 243.372 85.8158 243.372 86.9694V87.6215C243.372 88.6246 243.923 89.2265 245.376 89.2265H262.01C267.622 89.2265 269.927 91.634 269.927 96.1481V99.1575C269.927 103.521 267.923 106.33 261.96 106.33H236.157C235.455 106.33 235.104 105.979 235.104 105.277V100.562C235.104 99.8597 235.455 99.5086 236.157 99.5086H259.655C261.108 99.5086 261.71 98.9569 261.71 97.7531V96.4491C261.71 95.4961 261.108 94.8942 259.655 94.8942H243.021C237.409 94.8942 235.104 92.4867 235.104 87.9224V85.5149C235.104 81.2516 237.109 78.4428 243.071 78.4428Z" fill="white"/>
<path d="M184.605 78.4428H202.342V70.0164C202.342 69.1638 202.793 68.7124 203.645 68.7124H209.507C210.359 68.7124 210.81 69.1638 210.81 70.0164V96.0478C210.81 103.421 207.904 106.33 198.785 106.33H184.605C175.486 106.33 172.53 103.421 172.53 96.0478V88.7249C172.53 81.3519 175.486 78.4428 184.605 78.4428ZM197.933 99.2077C201.54 99.2077 202.342 98.2045 202.342 94.3926V85.5149H185.457C181.85 85.5149 180.998 86.5682 180.998 90.3801V94.3926C180.998 98.2045 181.85 99.2077 185.457 99.2077H197.933Z" fill="#C73030"/>
<path d="M143.269 78.4428H158.1C165.014 78.4428 166.868 80.5995 166.868 86.7186V91.8848C166.868 94.0415 165.966 94.7437 163.962 94.7437H139.661V95.6465C139.661 98.2045 140.513 99.2077 144.121 99.2077H164.964C165.665 99.2077 166.016 99.5588 166.016 100.261V105.277C166.016 105.979 165.665 106.33 164.964 106.33H143.269C134.15 106.33 131.194 103.421 131.194 96.0478V88.7249C131.194 81.3519 134.15 78.4428 143.269 78.4428ZM139.661 88.5243V89.5776H157.899C158.35 89.5776 158.601 89.3769 158.601 88.8754V87.0196C158.601 85.5149 157.999 84.913 156.446 84.913H144.121C140.513 84.913 139.661 85.9663 139.661 88.5243Z" fill="#C73030"/>
<path d="M105.186 78.4428H109.846V71.8723C109.846 70.9694 110.247 70.5682 111.149 70.5682H116.961C117.863 70.5682 118.264 70.9694 118.264 71.8723V78.4428H126.18C126.881 78.4428 127.232 78.7939 127.232 79.4961V84.3613C127.232 85.0635 126.881 85.4146 126.18 85.4146H118.264V96.1983C118.264 98.3049 119.015 99.3582 121.52 99.3582H126.481C127.182 99.3582 127.533 99.7093 127.533 100.411V105.277C127.533 105.979 127.182 106.33 126.481 106.33H120.067C112.001 106.33 109.846 103.421 109.846 96.1983V85.4146H105.186C104.485 85.4146 104.134 85.0635 104.134 84.3613V79.4961C104.134 78.7939 104.485 78.4428 105.186 78.4428Z" fill="#C73030"/>
<path d="M92.2075 78.4428H98.0196C98.9215 78.4428 99.3724 78.844 99.3724 79.7469V105.026C99.3724 105.879 98.9215 106.33 98.0196 106.33H92.2075C91.3057 106.33 90.9048 105.879 90.9048 105.026V79.7469C90.9048 78.844 91.3057 78.4428 92.2075 78.4428ZM92.2075 67.96H98.0697C98.9215 67.96 99.3724 68.4114 99.3724 69.2641V74.1795C99.3724 75.0823 98.9215 75.4835 98.0697 75.4835H92.2075C91.3558 75.4835 90.9048 75.0823 90.9048 74.1795V69.2641C90.9048 68.4114 91.3558 67.96 92.2075 67.96Z" fill="#C73030"/>
<path d="M46.0479 78.4428H71.8513C80.9702 78.4428 83.9264 81.3519 83.9264 88.7249V105.026C83.9264 105.879 83.4754 106.33 82.6237 106.33H76.7615C75.9098 106.33 75.4588 105.879 75.4588 105.026V90.7813C75.4588 87.0196 75.0079 85.9663 71.4004 85.9663H63.1834V105.026C63.1834 105.879 62.7324 106.33 61.8807 106.33H56.0185C55.1668 106.33 54.7158 105.879 54.7158 105.026V85.9663H46.8996C43.2922 85.9663 42.4404 87.0196 42.4404 90.7813V105.026C42.4404 105.879 41.9895 106.33 41.1377 106.33H35.2755C34.4238 106.33 33.9728 105.879 33.9728 105.026V88.7249C33.9728 81.3519 36.929 78.4428 46.0479 78.4428Z" fill="#C73030"/>
<path d="M19.8917 78.4428H25.7037C26.6056 78.4428 27.0565 78.844 27.0565 79.7469V105.026C27.0565 105.879 26.6056 106.33 25.7037 106.33H19.8917C18.9898 106.33 18.589 105.879 18.589 105.026V79.7469C18.589 78.844 18.9898 78.4428 19.8917 78.4428ZM19.8917 67.96H25.7538C26.6056 67.96 27.0565 68.4114 27.0565 69.2641V74.1795C27.0565 75.0823 26.6056 75.4835 25.7538 75.4835H19.8917C19.0399 75.4835 18.589 75.0823 18.589 74.1795V69.2641C18.589 68.4114 19.0399 67.96 19.8917 67.96Z" fill="#C73030"/>
<path d="M4.35751 68.7124H10.1696C11.0714 68.7124 11.5224 69.1638 11.5224 70.0164V105.026C11.5224 105.879 11.0714 106.33 10.1696 106.33H4.35751C3.45564 106.33 3.05481 105.879 3.05481 105.026V70.0164C3.05481 69.1638 3.45564 68.7124 4.35751 68.7124Z" fill="#C73030"/>
<path d="M280.146 11.2328H294.175C294.877 11.2328 295.228 11.5839 295.228 12.2861V17.2516C295.228 17.9538 294.877 18.3049 294.175 18.3049H280.998C277.391 18.3049 276.539 19.3582 276.539 23.1701V37.8158C276.539 38.6685 276.088 39.1199 275.236 39.1199H269.374C268.522 39.1199 268.071 38.6685 268.071 37.8158V21.5149C268.071 14.1418 271.027 11.2328 280.146 11.2328Z" fill="white"/>
<path d="M238.509 11.2328H253.34C260.254 11.2328 262.108 13.3895 262.108 19.5086V24.6748C262.108 26.8315 261.206 27.5337 259.202 27.5337H234.902V28.4365C234.902 30.9945 235.754 31.9977 239.361 31.9977H260.204C260.906 31.9977 261.256 32.3487 261.256 33.0509V38.0666C261.256 38.7688 260.906 39.1199 260.204 39.1199H238.509C229.39 39.1199 226.434 36.2108 226.434 28.8378V21.5149C226.434 14.1418 229.39 11.2328 238.509 11.2328ZM234.902 21.3143V22.3676H253.14C253.59 22.3676 253.841 22.1669 253.841 21.6654V19.8096C253.841 18.3049 253.24 17.703 251.687 17.703H239.361C235.754 17.703 234.902 18.7563 234.902 21.3143Z" fill="white"/>
<path d="M186.085 11.2328H192.949C193.65 11.2328 194.051 11.4334 194.302 11.9851L204.873 31.9475C205.024 32.2484 205.124 32.2986 205.375 32.2986H205.625C205.876 32.2986 205.976 32.2484 206.126 31.9475L216.698 11.9851C216.999 11.4334 217.399 11.2328 218.101 11.2328H224.765C225.566 11.2328 225.867 11.935 225.516 12.6873L212.69 36.5118C211.638 38.4679 210.435 39.1199 207.88 39.1199H202.97C200.364 39.1199 199.162 38.4679 198.109 36.5118L185.283 12.6873C184.932 11.935 185.233 11.2328 186.085 11.2328Z" fill="white"/>
<path d="M155.935 11.2328H170.264C179.383 11.2328 182.289 14.1418 182.289 21.5149V28.8378C182.289 36.2108 179.383 39.1199 170.264 39.1199H155.935C146.816 39.1199 143.859 36.2108 143.859 28.8378V21.5149C143.859 14.1418 146.816 11.2328 155.935 11.2328ZM152.327 23.0196V27.3331C152.327 31.145 153.179 32.1983 156.786 32.1983H169.412C173.02 32.1983 173.822 31.145 173.822 27.3331V23.0196C173.822 19.1575 173.02 18.1544 169.412 18.1544H156.786C153.179 18.1544 152.327 19.1575 152.327 23.0196Z" fill="white"/>
<path d="M117.483 11.2328H137.674C138.426 11.2328 138.727 11.5839 138.727 12.2861V17.2516C138.727 17.9538 138.426 18.3049 137.674 18.3049H118.334C114.727 18.3049 113.875 19.3582 113.875 23.1701V27.1826C113.875 30.9945 114.727 31.9977 118.334 31.9977H137.674C138.426 31.9977 138.727 32.3487 138.727 33.0509V38.0666C138.727 38.7688 138.426 39.1199 137.674 39.1199H117.483C108.364 39.1199 105.458 36.2108 105.458 28.8378V21.5149C105.458 14.1418 108.364 11.2328 117.483 11.2328Z" fill="white"/>
<path d="M73.6339 11.2328H98.2349C98.9364 11.2328 99.2871 11.5839 99.2871 12.2861V17.0008C99.2871 17.703 98.9364 18.0541 98.2349 18.0541H75.9387C74.4857 18.0541 73.9346 18.6058 73.9346 19.7594V20.4114C73.9346 21.4146 74.4857 22.0165 75.9387 22.0165H92.5732C98.1848 22.0165 100.49 24.424 100.49 28.9381V31.9475C100.49 36.3111 98.4854 39.1199 92.5231 39.1199H66.7196C66.0181 39.1199 65.6674 38.7688 65.6674 38.0666V33.3519C65.6674 32.6497 66.0181 32.2986 66.7196 32.2986H90.2183C91.6713 32.2986 92.2726 31.7469 92.2726 30.5431V29.239C92.2726 28.286 91.6713 27.6842 90.2183 27.6842H73.5838C67.9722 27.6842 65.6674 25.2766 65.6674 20.7124V18.3049C65.6674 14.0415 67.6716 11.2328 73.6339 11.2328Z" fill="white"/>
<path d="M52.0873 11.2328H57.8994C58.8012 11.2328 59.2522 11.634 59.2522 12.5368V37.8158C59.2522 38.6685 58.8012 39.1199 57.8994 39.1199H52.0873C51.1854 39.1199 50.7846 38.6685 50.7846 37.8158V12.5368C50.7846 11.634 51.1854 11.2328 52.0873 11.2328ZM52.0873 0.75H57.9495C58.8012 0.75 59.2522 1.20141 59.2522 2.05408V6.96944C59.2522 7.87226 58.8012 8.27351 57.9495 8.27351H52.0873C51.2355 8.27351 50.7846 7.87226 50.7846 6.96944V2.05408C50.7846 1.20141 51.2355 0.75 52.0873 0.75Z" fill="white"/>
<path d="M4.70825 4.01019H28.4074C39.4302 4.01019 43.9396 8.37383 43.9396 18.1544V24.9757C43.9396 34.7563 39.4302 39.1199 28.4074 39.1199H4.70825C3.70618 39.1199 3.20514 38.6183 3.20514 37.6152V5.5149C3.20514 4.51176 3.70618 4.01019 4.70825 4.01019ZM12.324 12.9883V30.1419C12.324 30.6434 12.5245 30.8942 12.9253 30.8942H28.207C33.3175 30.8942 34.8207 29.3895 34.8207 24.1732V18.9569C34.8207 13.7406 33.3175 12.2861 28.207 12.2861H12.9253C12.5245 12.2861 12.324 12.4867 12.324 12.9883Z" fill="white"/>
</svg>
