<svg width="549" height="240" viewBox="0 0 549 240" fill="none" xmlns="http://www.w3.org/2000/svg">
<path d="M4.7 4H28.35C39.35 4 43.85 8.35 43.85 18.1V24.9C43.85 34.65 39.35 39 28.35 39H4.7C3.7 39 3.2 38.5 3.2 37.5V5.5C3.2 4.5 3.7 4 4.7 4ZM12.3 12.95V30.05C12.3 30.55 12.5 30.8 12.9 30.8H28.15C33.25 30.8 34.75 29.3 34.75 24.1V18.9C34.75 13.7 33.25 12.25 28.15 12.25H12.9C12.5 12.25 12.3 12.45 12.3 12.95ZM51.9809 11.2H57.7809C58.6809 11.2 59.1309 11.6 59.1309 12.5V37.7C59.1309 38.55 58.6809 39 57.7809 39H51.9809C51.0809 39 50.6809 38.55 50.6809 37.7V12.5C50.6809 11.6 51.0809 11.2 51.9809 11.2ZM51.9809 0.749998H57.8309C58.6809 0.749998 59.1309 1.2 59.1309 2.05V6.95C59.1309 7.85 58.6809 8.25 57.8309 8.25H51.9809C51.1309 8.25 50.6809 7.85 50.6809 6.95V2.05C50.6809 1.2 51.1309 0.749998 51.9809 0.749998ZM73.4828 11.2H98.0328C98.7328 11.2 99.0828 11.55 99.0828 12.25V16.95C99.0828 17.65 98.7328 18 98.0328 18H75.7828C74.3328 18 73.7828 18.55 73.7828 19.7V20.35C73.7828 21.35 74.3328 21.95 75.7828 21.95H92.3828C97.9828 21.95 100.283 24.35 100.283 28.85V31.85C100.283 36.2 98.2828 39 92.3328 39H66.5828C65.8828 39 65.5328 38.65 65.5328 37.95V33.25C65.5328 32.55 65.8828 32.2 66.5828 32.2H90.0328C91.4828 32.2 92.0828 31.65 92.0828 30.45V29.15C92.0828 28.2 91.4828 27.6 90.0328 27.6H73.4328C67.8328 27.6 65.5328 25.2 65.5328 20.65V18.25C65.5328 14 67.5328 11.2 73.4828 11.2ZM117.241 11.2H137.391C138.141 11.2 138.441 11.55 138.441 12.25V17.2C138.441 17.9 138.141 18.25 137.391 18.25H118.091C114.491 18.25 113.641 19.3 113.641 23.1V27.1C113.641 30.9 114.491 31.9 118.091 31.9H137.391C138.141 31.9 138.441 32.25 138.441 32.95V37.95C138.441 38.65 138.141 39 137.391 39H117.241C108.141 39 105.241 36.1 105.241 28.75V21.45C105.241 14.1 108.141 11.2 117.241 11.2ZM155.613 11.2H169.913C179.013 11.2 181.913 14.1 181.913 21.45V28.75C181.913 36.1 179.013 39 169.913 39H155.613C146.513 39 143.563 36.1 143.563 28.75V21.45C143.563 14.1 146.513 11.2 155.613 11.2ZM152.013 22.95V27.25C152.013 31.05 152.863 32.1 156.463 32.1H169.063C172.663 32.1 173.463 31.05 173.463 27.25V22.95C173.463 19.1 172.663 18.1 169.063 18.1H156.463C152.863 18.1 152.013 19.1 152.013 22.95ZM185.7 11.2H192.55C193.25 11.2 193.65 11.4 193.9 11.95L204.45 31.85C204.6 32.15 204.7 32.2 204.95 32.2H205.2C205.45 32.2 205.55 32.15 205.7 31.85L216.25 11.95C216.55 11.4 216.95 11.2 217.65 11.2H224.3C225.1 11.2 225.4 11.9 225.05 12.65L212.25 36.4C211.2 38.35 210 39 207.45 39H202.55C199.95 39 198.75 38.35 197.7 36.4L184.9 12.65C184.55 11.9 184.85 11.2 185.7 11.2ZM238.016 11.2H252.816C259.716 11.2 261.566 13.35 261.566 19.45V24.6C261.566 26.75 260.666 27.45 258.666 27.45H234.416V28.35C234.416 30.9 235.266 31.9 238.866 31.9H259.666C260.366 31.9 260.716 32.25 260.716 32.95V37.95C260.716 38.65 260.366 39 259.666 39H238.016C228.916 39 225.966 36.1 225.966 28.75V21.45C225.966 14.1 228.916 11.2 238.016 11.2ZM234.416 21.25V22.3H252.616C253.066 22.3 253.316 22.1 253.316 21.6V19.75C253.316 18.25 252.716 17.65 251.166 17.65H238.866C235.266 17.65 234.416 18.7 234.416 21.25ZM279.567 11.2H293.567C294.267 11.2 294.617 11.55 294.617 12.25V17.2C294.617 17.9 294.267 18.25 293.567 18.25H280.417C276.817 18.25 275.967 19.3 275.967 23.1V37.7C275.967 38.55 275.517 39 274.667 39H268.817C267.967 39 267.517 38.55 267.517 37.7V21.45C267.517 14.1 270.467 11.2 279.567 11.2ZM242.569 78.2H267.119C267.819 78.2 268.169 78.55 268.169 79.25V83.95C268.169 84.65 267.819 85 267.119 85H244.869C243.419 85 242.869 85.55 242.869 86.7V87.35C242.869 88.35 243.419 88.95 244.869 88.95H261.469C267.069 88.95 269.369 91.35 269.369 95.85V98.85C269.369 103.2 267.369 106 261.419 106H235.669C234.969 106 234.619 105.65 234.619 104.95V100.25C234.619 99.55 234.969 99.2 235.669 99.2H259.119C260.569 99.2 261.169 98.65 261.169 97.45V96.15C261.169 95.2 260.569 94.6 259.119 94.6H242.519C236.919 94.6 234.619 92.2 234.619 87.65V85.25C234.619 81 236.619 78.2 242.569 78.2ZM287.427 78.2H301.927C311.027 78.2 313.927 81.1 313.927 88.45V104.7C313.927 105.55 313.477 106 312.627 106H306.777C305.927 106 305.477 105.55 305.477 104.7V90.5C305.477 86.75 305.027 85.7 301.427 85.7H288.277C284.677 85.7 283.827 86.75 283.827 90.5V104.7C283.827 105.55 283.377 106 282.527 106H276.677C275.827 106 275.377 105.55 275.377 104.7V88.45C275.377 81.1 278.327 78.2 287.427 78.2ZM331.763 78.2H346.563C353.463 78.2 355.313 80.35 355.313 86.45V91.6C355.313 93.75 354.413 94.45 352.413 94.45H328.163V95.35C328.163 97.9 329.013 98.9 332.613 98.9H353.413C354.113 98.9 354.463 99.25 354.463 99.95V104.95C354.463 105.65 354.113 106 353.413 106H331.763C322.663 106 319.713 103.1 319.713 95.75V88.45C319.713 81.1 322.663 78.2 331.763 78.2ZM328.163 88.25V89.3H346.363C346.813 89.3 347.063 89.1 347.063 88.6V86.75C347.063 85.25 346.463 84.65 344.913 84.65H332.613C329.013 84.65 328.163 85.7 328.163 88.25ZM362.163 78.2H383.813C392.913 78.2 395.863 81.1 395.863 88.45V101.95C395.863 105.25 395.063 106 392.163 106H368.113C362.113 106 360.263 103.85 360.263 98.8V96.2C360.263 92 362.113 89.6 368.113 89.6H387.413V88.8C387.413 86.25 386.563 85.25 382.963 85.25H362.163C361.463 85.25 361.113 84.9 361.113 84.2V79.25C361.113 78.55 361.463 78.2 362.163 78.2ZM386.163 99.5C387.063 99.5 387.413 99.1 387.413 98.1V94.8H370.563C369.113 94.8 368.563 95.45 368.563 96.65V97.6C368.563 98.9 369.113 99.5 370.563 99.5H386.163ZM403.214 68.5H409.064C409.914 68.5 410.364 68.95 410.364 69.8V88.75H418.914C421.014 88.75 421.614 88.6 422.614 87.15L428.114 79.15C428.614 78.45 428.964 78.2 429.864 78.2H436.614C437.414 78.2 437.714 78.95 437.164 79.7L430.664 88.75C429.814 89.95 428.964 90.9 428.014 91.65C429.264 92.45 430.314 93.45 431.214 94.7L438.314 104.55C438.764 105.25 438.414 106 437.614 106H430.864C429.864 106 429.564 105.8 429.114 105.2L423.164 96.75C422.214 95.45 421.514 95.1 419.514 95.1H410.364V104.7C410.364 105.55 409.914 106 409.064 106H403.214C402.364 106 401.914 105.55 401.914 104.7V69.8C401.914 68.95 402.364 68.5 403.214 68.5ZM453.122 78.2H467.922C474.822 78.2 476.672 80.35 476.672 86.45V91.6C476.672 93.75 475.772 94.45 473.772 94.45H449.522V95.35C449.522 97.9 450.372 98.9 453.972 98.9H474.772C475.472 98.9 475.822 99.25 475.822 99.95V104.95C475.822 105.65 475.472 106 474.772 106H453.122C444.022 106 441.072 103.1 441.072 95.75V88.45C441.072 81.1 444.022 78.2 453.122 78.2ZM449.522 88.25V89.3H467.722C468.172 89.3 468.422 89.1 468.422 88.6V86.75C468.422 85.25 467.822 84.65 466.272 84.65H453.972C450.372 84.65 449.522 85.7 449.522 88.25ZM494.673 78.2H508.673C509.373 78.2 509.723 78.55 509.723 79.25V84.2C509.723 84.9 509.373 85.25 508.673 85.25H495.523C491.923 85.25 491.073 86.3 491.073 90.1V104.7C491.073 105.55 490.623 106 489.773 106H483.923C483.073 106 482.623 105.55 482.623 104.7V88.45C482.623 81.1 485.573 78.2 494.673 78.2ZM521.786 78.2H546.336C547.036 78.2 547.386 78.55 547.386 79.25V83.95C547.386 84.65 547.036 85 546.336 85H524.086C522.636 85 522.086 85.55 522.086 86.7V87.35C522.086 88.35 522.636 88.95 524.086 88.95H540.686C546.286 88.95 548.586 91.35 548.586 95.85V98.85C548.586 103.2 546.586 106 540.636 106H514.886C514.186 106 513.836 105.65 513.836 104.95V100.25C513.836 99.55 514.186 99.2 514.886 99.2H538.336C539.786 99.2 540.386 98.65 540.386 97.45V96.15C540.386 95.2 539.786 94.6 538.336 94.6H521.736C516.136 94.6 513.836 92.2 513.836 87.65V85.25C513.836 81 515.836 78.2 521.786 78.2ZM1.75 145.2H8.55C9.3 145.2 9.7 145.5 9.85 146.05L15.45 165.9C15.5 166.1 15.65 166.2 15.85 166.2H16.05C16.3 166.2 16.4 166.15 16.5 165.9L22.2 147.85C22.85 145.75 23.8 145.2 25.75 145.2H32.8C34.8 145.2 35.75 145.75 36.4 147.85L42.05 165.9C42.1 166.15 42.25 166.2 42.45 166.2H42.7C42.85 166.2 43.05 166.1 43.1 165.9L48.7 146.05C48.85 145.5 49.25 145.2 50 145.2H56.85C57.8 145.2 58 145.75 57.75 146.55L50.85 169.4C49.95 172.3 48.9 173 46.5 173H38.95C37.05 173 36.15 172.25 35.25 169.4L29.7 152.3C29.65 152.05 29.5 151.95 29.35 151.95H29.05C28.85 151.95 28.75 152.05 28.7 152.3L23.2 169.4C22.3 172.25 21.4 173 19.45 173H11.9C9.55 173 8.4 172.3 7.55 169.4L0.8 146.55C0.6 145.75 0.75 145.2 1.75 145.2ZM63.8949 145.2H69.6949C70.5949 145.2 71.0449 145.6 71.0449 146.5V171.7C71.0449 172.55 70.5949 173 69.6949 173H63.8949C62.9949 173 62.5949 172.55 62.5949 171.7V146.5C62.5949 145.6 62.9949 145.2 63.8949 145.2ZM63.8949 134.75H69.7449C70.5949 134.75 71.0449 135.2 71.0449 136.05V140.95C71.0449 141.85 70.5949 142.25 69.7449 142.25H63.8949C63.0449 142.25 62.5949 141.85 62.5949 140.95V136.05C62.5949 135.2 63.0449 134.75 63.8949 134.75ZM76.8469 145.2H81.4969V138.65C81.4969 137.75 81.8969 137.35 82.7969 137.35H88.5969C89.4969 137.35 89.8969 137.75 89.8969 138.65V145.2H97.7969C98.4969 145.2 98.8469 145.55 98.8469 146.25V151.1C98.8469 151.8 98.4969 152.15 97.7969 152.15H89.8969V162.9C89.8969 165 90.6469 166.05 93.1469 166.05H98.0969C98.7969 166.05 99.1469 166.4 99.1469 167.1V171.95C99.1469 172.65 98.7969 173 98.0969 173H91.6969C83.6469 173 81.4969 170.1 81.4969 162.9V152.15H76.8469C76.1469 152.15 75.7969 151.8 75.7969 151.1V146.25C75.7969 145.55 76.1469 145.2 76.8469 145.2ZM105.25 135.5H111.05C111.95 135.5 112.4 135.95 112.4 136.8V145.2H130.1C139.2 145.2 142.1 148.1 142.1 155.45V171.7C142.1 172.55 141.65 173 140.8 173H134.95C134.1 173 133.65 172.55 133.65 171.7V157.5C133.65 153.75 133.2 152.7 129.6 152.7H112.4V171.7C112.4 172.55 111.95 173 111.05 173H105.25C104.35 173 103.95 172.55 103.95 171.7V136.8C103.95 135.95 104.35 135.5 105.25 135.5ZM160.642 145.2H174.942C184.042 145.2 186.942 148.1 186.942 155.45V162.75C186.942 170.1 184.042 173 174.942 173H160.642C151.542 173 148.592 170.1 148.592 162.75V155.45C148.592 148.1 151.542 145.2 160.642 145.2ZM157.042 156.95V161.25C157.042 165.05 157.892 166.1 161.492 166.1H174.092C177.692 166.1 178.492 165.05 178.492 161.25V156.95C178.492 153.1 177.692 152.1 174.092 152.1H161.492C157.892 152.1 157.042 153.1 157.042 156.95ZM194.796 145.2H200.646C201.496 145.2 201.946 145.6 201.946 146.5V160.65C201.946 164.45 202.396 165.5 205.996 165.5H218.796C222.396 165.5 223.196 164.45 223.196 160.65V146.5C223.196 145.6 223.646 145.2 224.496 145.2H230.346C231.196 145.2 231.646 145.6 231.646 146.5V162.75C231.646 170.1 228.746 173 219.646 173H205.546C196.446 173 193.496 170.1 193.496 162.75V146.5C193.496 145.6 193.946 145.2 194.796 145.2ZM237.341 145.2H241.991V138.65C241.991 137.75 242.391 137.35 243.291 137.35H249.091C249.991 137.35 250.391 137.75 250.391 138.65V145.2H258.291C258.991 145.2 259.341 145.55 259.341 146.25V151.1C259.341 151.8 258.991 152.15 258.291 152.15H250.391V162.9C250.391 165 251.141 166.05 253.641 166.05H258.591C259.291 166.05 259.641 166.4 259.641 167.1V171.95C259.641 172.65 259.291 173 258.591 173H252.191C244.141 173 241.991 170.1 241.991 162.9V152.15H237.341C236.641 152.15 236.291 151.8 236.291 151.1V146.25C236.291 145.55 236.641 145.2 237.341 145.2ZM4.35 202.5H10.15C11.05 202.5 11.5 202.95 11.5 203.8V238.7C11.5 239.55 11.05 240 10.15 240H4.35C3.45 240 3.05 239.55 3.05 238.7V203.8C3.05 202.95 3.45 202.5 4.35 202.5ZM19.852 212.2H25.652C26.552 212.2 27.002 212.6 27.002 213.5V238.7C27.002 239.55 26.552 240 25.652 240H19.852C18.952 240 18.552 239.55 18.552 238.7V213.5C18.552 212.6 18.952 212.2 19.852 212.2ZM19.852 201.75H25.702C26.552 201.75 27.002 202.2 27.002 203.05V207.95C27.002 208.85 26.552 209.25 25.702 209.25H19.852C19.002 209.25 18.552 208.85 18.552 207.95V203.05C18.552 202.2 19.002 201.75 19.852 201.75ZM45.9539 212.2H71.7039C80.8039 212.2 83.7539 215.1 83.7539 222.45V238.7C83.7539 239.55 83.3039 240 82.4539 240H76.6039C75.7539 240 75.3039 239.55 75.3039 238.7V224.5C75.3039 220.75 74.8539 219.7 71.2539 219.7H63.0539V238.7C63.0539 239.55 62.6039 240 61.7539 240H55.9039C55.0539 240 54.6039 239.55 54.6039 238.7V219.7H46.8039C43.2039 219.7 42.3539 220.75 42.3539 224.5V238.7C42.3539 239.55 41.9039 240 41.0539 240H35.2039C34.3539 240 33.9039 239.55 33.9039 238.7V222.45C33.9039 215.1 36.8539 212.2 45.9539 212.2ZM92.018 212.2H97.818C98.718 212.2 99.168 212.6 99.168 213.5V238.7C99.168 239.55 98.718 240 97.818 240H92.018C91.118 240 90.718 239.55 90.718 238.7V213.5C90.718 212.6 91.118 212.2 92.018 212.2ZM92.018 201.75H97.868C98.718 201.75 99.168 202.2 99.168 203.05V207.95C99.168 208.85 98.718 209.25 97.868 209.25H92.018C91.168 209.25 90.718 208.85 90.718 207.95V203.05C90.718 202.2 91.168 201.75 92.018 201.75ZM104.97 212.2H109.62V205.65C109.62 204.75 110.02 204.35 110.92 204.35H116.72C117.62 204.35 118.02 204.75 118.02 205.65V212.2H125.92C126.62 212.2 126.97 212.55 126.97 213.25V218.1C126.97 218.8 126.62 219.15 125.92 219.15H118.02V229.9C118.02 232 118.77 233.05 121.27 233.05H126.22C126.92 233.05 127.27 233.4 127.27 234.1V238.95C127.27 239.65 126.92 240 126.22 240H119.82C111.77 240 109.62 237.1 109.62 229.9V219.15H104.97C104.27 219.15 103.92 218.8 103.92 218.1V213.25C103.92 212.55 104.27 212.2 104.97 212.2ZM132.823 212.2H154.473C163.573 212.2 166.523 215.1 166.523 222.45V235.95C166.523 239.25 165.723 240 162.823 240H138.773C132.773 240 130.923 237.85 130.923 232.8V230.2C130.923 226 132.773 223.6 138.773 223.6H158.073V222.8C158.073 220.25 157.223 219.25 153.623 219.25H132.823C132.123 219.25 131.773 218.9 131.773 218.2V213.25C131.773 212.55 132.123 212.2 132.823 212.2ZM156.823 233.5C157.723 233.5 158.073 233.1 158.073 232.1V228.8H141.223C139.773 228.8 139.223 229.45 139.223 230.65V231.6C139.223 232.9 139.773 233.5 141.223 233.5H156.823ZM171.374 212.2H176.024V205.65C176.024 204.75 176.424 204.35 177.324 204.35H183.124C184.024 204.35 184.424 204.75 184.424 205.65V212.2H192.324C193.024 212.2 193.374 212.55 193.374 213.25V218.1C193.374 218.8 193.024 219.15 192.324 219.15H184.424V229.9C184.424 232 185.174 233.05 187.674 233.05H192.624C193.324 233.05 193.674 233.4 193.674 234.1V238.95C193.674 239.65 193.324 240 192.624 240H186.224C178.174 240 176.024 237.1 176.024 229.9V219.15H171.374C170.674 219.15 170.324 218.8 170.324 218.1V213.25C170.324 212.55 170.674 212.2 171.374 212.2ZM199.778 212.2H205.578C206.478 212.2 206.928 212.6 206.928 213.5V238.7C206.928 239.55 206.478 240 205.578 240H199.778C198.878 240 198.478 239.55 198.478 238.7V213.5C198.478 212.6 198.878 212.2 199.778 212.2ZM199.778 201.75H205.628C206.478 201.75 206.928 202.2 206.928 203.05V207.95C206.928 208.85 206.478 209.25 205.628 209.25H199.778C198.928 209.25 198.478 208.85 198.478 207.95V203.05C198.478 202.2 198.928 201.75 199.778 201.75ZM225.58 212.2H239.88C248.98 212.2 251.88 215.1 251.88 222.45V229.75C251.88 237.1 248.98 240 239.88 240H225.58C216.48 240 213.53 237.1 213.53 229.75V222.45C213.53 215.1 216.48 212.2 225.58 212.2ZM221.98 223.95V228.25C221.98 232.05 222.83 233.1 226.43 233.1H239.03C242.63 233.1 243.43 232.05 243.43 228.25V223.95C243.43 220.1 242.63 219.1 239.03 219.1H226.43C222.83 219.1 221.98 220.1 221.98 223.95ZM270.483 212.2H284.983C294.083 212.2 296.983 215.1 296.983 222.45V238.7C296.983 239.55 296.533 240 295.683 240H289.833C288.983 240 288.533 239.55 288.533 238.7V224.5C288.533 220.75 288.083 219.7 284.483 219.7H271.333C267.733 219.7 266.883 220.75 266.883 224.5V238.7C266.883 239.55 266.433 240 265.583 240H259.733C258.883 240 258.433 239.55 258.433 238.7V222.45C258.433 215.1 261.383 212.2 270.483 212.2ZM311.219 212.2H335.769C336.469 212.2 336.819 212.55 336.819 213.25V217.95C336.819 218.65 336.469 219 335.769 219H313.519C312.069 219 311.519 219.55 311.519 220.7V221.35C311.519 222.35 312.069 222.95 313.519 222.95H330.119C335.719 222.95 338.019 225.35 338.019 229.85V232.85C338.019 237.2 336.019 240 330.069 240H304.319C303.619 240 303.269 239.65 303.269 238.95V234.25C303.269 233.55 303.619 233.2 304.319 233.2H327.769C329.219 233.2 329.819 232.65 329.819 231.45V230.15C329.819 229.2 329.219 228.6 327.769 228.6H311.169C305.569 228.6 303.269 226.2 303.269 221.65V219.25C303.269 215 305.269 212.2 311.219 212.2Z" fill="#281515"/>
<path d="M4.35 68.5H10.15C11.05 68.5 11.5 68.95 11.5 69.8V104.7C11.5 105.55 11.05 106 10.15 106H4.35C3.45 106 3.05 105.55 3.05 104.7V69.8C3.05 68.95 3.45 68.5 4.35 68.5ZM19.852 78.2H25.652C26.552 78.2 27.002 78.6 27.002 79.5V104.7C27.002 105.55 26.552 106 25.652 106H19.852C18.952 106 18.552 105.55 18.552 104.7V79.5C18.552 78.6 18.952 78.2 19.852 78.2ZM19.852 67.75H25.702C26.552 67.75 27.002 68.2 27.002 69.05V73.95C27.002 74.85 26.552 75.25 25.702 75.25H19.852C19.002 75.25 18.552 74.85 18.552 73.95V69.05C18.552 68.2 19.002 67.75 19.852 67.75ZM45.9539 78.2H71.7039C80.8039 78.2 83.7539 81.1 83.7539 88.45V104.7C83.7539 105.55 83.3039 106 82.4539 106H76.6039C75.7539 106 75.3039 105.55 75.3039 104.7V90.5C75.3039 86.75 74.8539 85.7 71.2539 85.7H63.0539V104.7C63.0539 105.55 62.6039 106 61.7539 106H55.9039C55.0539 106 54.6039 105.55 54.6039 104.7V85.7H46.8039C43.2039 85.7 42.3539 86.75 42.3539 90.5V104.7C42.3539 105.55 41.9039 106 41.0539 106H35.2039C34.3539 106 33.9039 105.55 33.9039 104.7V88.45C33.9039 81.1 36.8539 78.2 45.9539 78.2ZM92.018 78.2H97.818C98.718 78.2 99.168 78.6 99.168 79.5V104.7C99.168 105.55 98.718 106 97.818 106H92.018C91.118 106 90.718 105.55 90.718 104.7V79.5C90.718 78.6 91.118 78.2 92.018 78.2ZM92.018 67.75H97.868C98.718 67.75 99.168 68.2 99.168 69.05V73.95C99.168 74.85 98.718 75.25 97.868 75.25H92.018C91.168 75.25 90.718 74.85 90.718 73.95V69.05C90.718 68.2 91.168 67.75 92.018 67.75ZM104.97 78.2H109.62V71.65C109.62 70.75 110.02 70.35 110.92 70.35H116.72C117.62 70.35 118.02 70.75 118.02 71.65V78.2H125.92C126.62 78.2 126.97 78.55 126.97 79.25V84.1C126.97 84.8 126.62 85.15 125.92 85.15H118.02V95.9C118.02 98 118.77 99.05 121.27 99.05H126.22C126.92 99.05 127.27 99.4 127.27 100.1V104.95C127.27 105.65 126.92 106 126.22 106H119.82C111.77 106 109.62 103.1 109.62 95.9V85.15H104.97C104.27 85.15 103.92 84.8 103.92 84.1V79.25C103.92 78.55 104.27 78.2 104.97 78.2ZM142.973 78.2H157.773C164.673 78.2 166.523 80.35 166.523 86.45V91.6C166.523 93.75 165.623 94.45 163.623 94.45H139.373V95.35C139.373 97.9 140.223 98.9 143.823 98.9H164.623C165.323 98.9 165.673 99.25 165.673 99.95V104.95C165.673 105.65 165.323 106 164.623 106H142.973C133.873 106 130.923 103.1 130.923 95.75V88.45C130.923 81.1 133.873 78.2 142.973 78.2ZM139.373 88.25V89.3H157.573C158.023 89.3 158.273 89.1 158.273 88.6V86.75C158.273 85.25 157.673 84.65 156.123 84.65H143.823C140.223 84.65 139.373 85.7 139.373 88.25ZM184.224 78.2H201.924V69.8C201.924 68.95 202.374 68.5 203.224 68.5H209.074C209.924 68.5 210.374 68.95 210.374 69.8V95.75C210.374 103.1 207.474 106 198.374 106H184.224C175.124 106 172.174 103.1 172.174 95.75V88.45C172.174 81.1 175.124 78.2 184.224 78.2ZM197.524 98.9C201.124 98.9 201.924 97.9 201.924 94.1V85.25H185.074C181.474 85.25 180.624 86.3 180.624 90.1V94.1C180.624 97.9 181.474 98.9 185.074 98.9H197.524Z" fill="#C73030"/>
</svg>
