<svg width="158" height="167" viewBox="0 0 158 167" fill="none" xmlns="http://www.w3.org/2000/svg">
<rect x="1.97739" y="0.707031" width="72.1782" height="49.1793" rx="5.5" fill="white" stroke="#D9D9D9"/>
<path fill-rule="evenodd" clip-rule="evenodd" d="M23.6927 34.2H19.2596L15.9352 21.5174C15.7774 20.934 15.4424 20.4183 14.9496 20.1752C13.7197 19.5643 12.3645 19.0781 10.886 18.833V18.3447H18.0275C19.0132 18.3447 19.7524 19.0781 19.8756 19.93L21.6004 29.0784L26.0315 18.3447H30.3414L23.6927 34.2ZM32.8055 34.2H28.6187L32.0663 18.3447H36.2531L32.8055 34.2ZM41.6697 22.7371C41.7929 21.8831 42.5321 21.3948 43.3946 21.3948C44.7498 21.2722 46.2261 21.5174 47.4581 22.1262L48.1974 18.7125C46.9653 18.2242 45.6101 17.979 44.3802 17.979C40.3166 17.979 37.3597 20.1752 37.3597 23.2232C37.3597 25.542 39.4542 26.7596 40.9326 27.493C42.5321 28.2244 43.1482 28.7127 43.025 29.444C43.025 30.5411 41.7929 31.0294 40.563 31.0294C39.0846 31.0294 37.6061 30.6637 36.2531 30.0528L35.5138 33.4686C36.9923 34.0774 38.5918 34.3226 40.0702 34.3226C44.6266 34.4431 47.4581 32.249 47.4581 28.9558C47.4581 24.8086 41.6697 24.5655 41.6697 22.7371V22.7371ZM62.1108 34.2L58.7864 18.3447H55.2157C54.4764 18.3447 53.7372 18.833 53.4908 19.5643L47.3349 34.2H51.6449L52.5052 31.8833H57.8008L58.2936 34.2H62.1108ZM55.8317 22.6145L57.0616 28.5901H53.614L55.8317 22.6145Z" fill="#172B85"/>
<rect x="1.97739" y="58.9387" width="72.1782" height="49.1793" rx="5.5" fill="white" stroke="#D9D9D9"/>
<path fill-rule="evenodd" clip-rule="evenodd" d="M38.5892 94.3106C36.0978 96.4606 32.8662 97.7584 29.3348 97.7584C21.4553 97.7584 15.0676 91.2966 15.0676 83.3256C15.0676 75.3546 21.4553 68.8928 29.3348 68.8928C32.8662 68.8928 36.0978 70.1907 38.5892 72.3406C41.0805 70.1907 44.3122 68.8928 47.8436 68.8928C55.7231 68.8928 62.1107 75.3546 62.1107 83.3256C62.1107 91.2966 55.7231 97.7584 47.8436 97.7584C44.3122 97.7584 41.0805 96.4606 38.5892 94.3106Z" fill="#ED0006"/>
<path fill-rule="evenodd" clip-rule="evenodd" d="M38.5892 94.3106C41.6568 91.6634 43.602 87.7243 43.602 83.3256C43.602 78.9269 41.6568 74.9879 38.5892 72.3406C41.0805 70.1907 44.3122 68.8928 47.8436 68.8928C55.7231 68.8928 62.1108 75.3546 62.1108 83.3256C62.1108 91.2966 55.7231 97.7584 47.8436 97.7584C44.3122 97.7584 41.0805 96.4606 38.5892 94.3106Z" fill="#F9A000"/>
<path fill-rule="evenodd" clip-rule="evenodd" d="M38.5892 72.3406C41.6568 74.9878 43.602 78.9269 43.602 83.3255C43.602 87.7242 41.6568 91.6632 38.5892 94.3105C35.5216 91.6632 33.5765 87.7242 33.5765 83.3255C33.5765 78.9269 35.5216 74.9878 38.5892 72.3406Z" fill="#FF5E00"/>
<rect x="83.5643" y="58.9387" width="72.1782" height="49.1793" rx="5.5" fill="white" stroke="#D9D9D9"/>
<path d="M125.079 83.7939C125.079 91.7649 118.691 98.2267 110.812 98.2267C102.932 98.2267 96.5446 91.7649 96.5446 83.7939C96.5446 75.8229 102.932 69.3611 110.812 69.3611C118.691 69.3611 125.079 75.8229 125.079 83.7939Z" fill="#ED0006"/>
<path d="M143.588 83.7939C143.588 91.7649 137.2 98.2267 129.321 98.2267C121.441 98.2267 115.053 91.7649 115.053 83.7939C115.053 75.8229 121.441 69.3611 129.321 69.3611C137.2 69.3611 143.588 75.8229 143.588 83.7939Z" fill="#0099DF"/>
<path fill-rule="evenodd" clip-rule="evenodd" d="M120.066 94.7787C123.134 92.1315 125.079 88.1924 125.079 83.7938C125.079 79.3951 123.134 75.4561 120.066 72.8088C116.999 75.4561 115.053 79.3951 115.053 83.7938C115.053 88.1924 116.999 92.1315 120.066 94.7787Z" fill="#6C6BBD"/>
<rect x="0.931992" y="116.125" width="72.1782" height="49.1793" rx="5.5" fill="#1F72CD" stroke="#D9D9D9"/>
<path fill-rule="evenodd" clip-rule="evenodd" d="M13.5511 133.397L6.70441 148.549H14.9009L15.917 146.133H18.2396L19.2557 148.549H28.2778V146.705L29.0817 148.549H33.7486L34.5525 146.666V148.549H53.3158L55.5973 146.196L57.7337 148.549L67.3709 148.568L60.5026 141.016L67.3709 133.397H57.8831L55.6622 135.707L53.5931 133.397H33.1811L31.4283 137.308L29.6344 133.397H21.4551V135.179L20.5451 133.397H13.5511ZM41.5703 135.549H52.3451L55.6406 139.109L59.0423 135.549H62.3378L57.3306 141.013L62.3378 146.415H58.8928L55.5973 142.814L52.1783 146.415H41.5703V135.549ZM44.2311 139.785V137.8V137.798H50.9542L53.8878 140.972L50.8242 144.164H44.2311V141.997H50.1092V139.785H44.2311ZM15.1371 135.549H19.1324L23.6738 145.823V135.549H28.0506L31.5583 142.916L34.7911 135.549H39.1459V146.421H36.4961L36.4745 137.902L32.6112 146.421H30.2409L26.356 137.902V146.421H20.9047L19.8712 143.984H14.2878L13.2564 146.419H10.3357L15.1371 135.549ZM15.2412 141.731L17.0807 137.389L18.9181 141.731H15.2412Z" fill="white"/>
<rect x="83.5643" y="1.7522" width="72.1782" height="49.1793" rx="5.5" fill="white" stroke="#D9D9D9"/>
<path fill-rule="evenodd" clip-rule="evenodd" d="M103.763 33.1179H100.511C100.288 33.1179 100.099 33.2797 100.064 33.4993L98.7488 41.8397C98.7226 42.0043 98.8501 42.1526 99.017 42.1526H100.57C100.792 42.1526 100.982 41.9909 101.016 41.7708L101.371 39.5213C101.405 39.301 101.595 39.1395 101.817 39.1395H102.847C104.989 39.1395 106.226 38.1026 106.549 36.0481C106.694 35.1493 106.555 34.4431 106.134 33.9483C105.672 33.4053 104.852 33.1179 103.763 33.1179ZM104.139 36.1641C103.961 37.3312 103.069 37.3312 102.207 37.3312H101.716L102.06 35.1515C102.081 35.0199 102.195 34.9228 102.328 34.9228H102.553C103.14 34.9228 103.694 34.9228 103.981 35.2576C104.151 35.4574 104.204 35.7541 104.139 36.1641ZM113.486 36.1267H111.928C111.796 36.1267 111.681 36.2238 111.66 36.3556L111.592 36.7911L111.483 36.6333C111.145 36.1439 110.394 35.9803 109.643 35.9803C107.922 35.9803 106.452 37.2839 106.166 39.1126C106.017 40.0246 106.228 40.8968 106.746 41.5052C107.22 42.0644 107.9 42.2975 108.708 42.2975C110.094 42.2975 110.863 41.4057 110.863 41.4057L110.794 41.8386C110.768 42.0041 110.895 42.1524 111.061 42.1524H112.464C112.687 42.1524 112.876 41.9907 112.911 41.7706L113.753 36.4397C113.779 36.2757 113.652 36.1267 113.486 36.1267ZM111.315 39.1582C111.164 40.048 110.458 40.6453 109.558 40.6453C109.105 40.6453 108.744 40.5002 108.512 40.2254C108.281 39.9525 108.194 39.5638 108.267 39.1311C108.408 38.2488 109.126 37.6321 110.013 37.6321C110.455 37.6321 110.814 37.7789 111.051 38.0562C111.288 38.3364 111.383 38.7272 111.315 39.1582ZM120.216 36.1265H121.781C122 36.1265 122.128 36.3723 122.004 36.5521L116.798 44.0663C116.714 44.188 116.575 44.2604 116.426 44.2604H114.863C114.643 44.2604 114.514 44.0126 114.642 43.8323L116.263 41.5443L114.539 36.485C114.479 36.3092 114.609 36.1265 114.796 36.1265H116.334C116.534 36.1265 116.71 36.2577 116.768 36.4489L117.683 39.5046L119.842 36.3248C119.926 36.2007 120.067 36.1265 120.216 36.1265Z" fill="#253B80"/>
<path fill-rule="evenodd" clip-rule="evenodd" d="M137.186 41.8396L138.521 33.3468C138.541 33.2149 138.655 33.1179 138.788 33.1174H140.291C140.457 33.1174 140.584 33.2662 140.558 33.4308L139.242 41.7707C139.207 41.9908 139.018 42.1526 138.795 42.1526H137.453C137.287 42.1526 137.16 42.0043 137.186 41.8396ZM126.963 33.1179H123.71C123.488 33.1179 123.299 33.2796 123.264 33.4993L121.948 41.8396C121.922 42.0043 122.05 42.1526 122.216 42.1526H123.885C124.04 42.1526 124.173 42.0395 124.197 41.8854L124.57 39.5213C124.605 39.301 124.794 39.1394 125.016 39.1394H126.046C128.188 39.1394 129.425 38.1026 129.748 36.0481C129.894 35.1493 129.754 34.443 129.333 33.9483C128.871 33.4053 128.052 33.1179 126.963 33.1179ZM127.338 36.1641C127.161 37.3312 126.269 37.3312 125.406 37.3312H124.916L125.261 35.1515C125.281 35.0198 125.394 34.9228 125.528 34.9228H125.753C126.34 34.9228 126.895 34.9228 127.181 35.2575C127.351 35.4574 127.403 35.7541 127.338 36.1641ZM136.685 36.1267H135.128C134.994 36.1267 134.881 36.2237 134.861 36.3555L134.792 36.7911L134.683 36.6333C134.345 36.1438 133.594 35.9803 132.844 35.9803C131.122 35.9803 129.653 37.2839 129.366 39.1126C129.218 40.0246 129.429 40.8968 129.946 41.5051C130.422 42.0643 131.1 42.2974 131.908 42.2974C133.295 42.2974 134.064 41.4056 134.064 41.4056L133.994 41.8385C133.968 42.004 134.096 42.1524 134.263 42.1524H135.665C135.887 42.1524 136.076 41.9906 136.111 41.7705L136.953 36.4396C136.979 36.2757 136.852 36.1267 136.685 36.1267ZM134.514 39.1581C134.364 40.0479 133.657 40.6452 132.756 40.6452C132.305 40.6452 131.943 40.5002 131.711 40.2253C131.48 39.9524 131.394 39.5637 131.466 39.131C131.607 38.2487 132.325 37.632 133.211 37.632C133.654 37.632 134.013 37.7788 134.25 38.0561C134.488 38.3363 134.583 38.7272 134.514 39.1581Z" fill="#179BD7"/>
<path d="M115.8 30.1342L116.2 27.5944L115.309 27.5737H111.056L114.012 8.8321C114.021 8.77551 114.051 8.72276 114.094 8.6853C114.138 8.64784 114.194 8.6272 114.252 8.6272H121.424C123.804 8.6272 125.447 9.12263 126.305 10.1005C126.707 10.5592 126.963 11.0386 127.087 11.5662C127.217 12.1197 127.22 12.781 127.093 13.5877L127.083 13.6465V14.1634L127.486 14.3912C127.824 14.5709 128.093 14.7765 128.3 15.012C128.644 15.4042 128.867 15.9027 128.961 16.4937C129.058 17.1016 129.025 17.8248 128.867 18.6437C128.683 19.5856 128.386 20.406 127.986 21.0773C127.617 21.6958 127.148 22.2087 126.59 22.6064C126.058 22.9841 125.426 23.2708 124.711 23.4544C124.018 23.6346 123.229 23.7258 122.362 23.7258H121.804C121.405 23.7258 121.017 23.8695 120.713 24.1272C120.408 24.3902 120.206 24.7494 120.144 25.1424L120.102 25.3711L119.396 29.8474L119.364 30.0118C119.355 30.064 119.341 30.09 119.319 30.1076C119.3 30.1234 119.273 30.1342 119.246 30.1342H115.8Z" fill="#253B80"/>
<path d="M127.867 13.7065C127.845 13.8434 127.821 13.9833 127.793 14.127C126.847 18.9828 123.612 20.6602 119.479 20.6602H117.375C116.87 20.6602 116.444 21.0272 116.365 21.5257L115.288 28.3578L114.983 30.2944C114.932 30.6216 115.184 30.9168 115.514 30.9168H119.246C119.688 30.9168 120.063 30.5957 120.133 30.1599L120.17 29.9702L120.872 25.5113L120.918 25.2667C120.986 24.8294 121.362 24.5083 121.804 24.5083H122.362C125.978 24.5083 128.808 23.0404 129.636 18.7924C129.981 17.0178 129.802 15.5361 128.888 14.494C128.611 14.1798 128.268 13.9191 127.867 13.7065Z" fill="#179BD7"/>
<path d="M126.877 13.3124C126.732 13.2703 126.583 13.2321 126.43 13.1977C126.277 13.164 126.119 13.1342 125.957 13.1082C125.39 13.0165 124.768 12.9729 124.102 12.9729H118.481C118.343 12.9729 118.211 13.0042 118.094 13.0608C117.834 13.1854 117.642 13.4309 117.595 13.7313L116.399 21.3051L116.365 21.526C116.444 21.0275 116.87 20.6605 117.375 20.6605H119.479C123.611 20.6605 126.847 18.9823 127.793 14.1274C127.821 13.9836 127.845 13.8437 127.866 13.7069C127.627 13.58 127.368 13.4714 127.089 13.3789C127.02 13.3559 126.949 13.3338 126.877 13.3124Z" fill="#222D65"/>
<path d="M117.595 13.7311C117.642 13.4306 117.835 13.1852 118.094 13.0613C118.212 13.0047 118.343 12.9734 118.481 12.9734H124.102C124.768 12.9734 125.39 13.017 125.957 13.1087C126.119 13.1347 126.277 13.1645 126.431 13.1981C126.583 13.2326 126.732 13.2708 126.877 13.3128C126.949 13.3343 127.02 13.3564 127.089 13.3786C127.369 13.4711 127.628 13.5804 127.867 13.7066C128.148 11.9122 127.865 10.6904 126.895 9.58408C125.825 8.36615 123.894 7.84473 121.424 7.84473H114.253C113.748 7.84473 113.318 8.2117 113.239 8.71096L110.252 27.6453C110.193 28.0198 110.482 28.3579 110.86 28.3579H115.288L116.399 21.3048L117.595 13.7311Z" fill="#253B80"/>
<rect x="85.3218" y="116.648" width="72.1782" height="49.1793" rx="5.5" fill="white" stroke="#D9D9D9"/>
<path d="M139.669 145.046H141.575V145.718C141.784 145.479 142.079 145.296 142.461 145.169C142.842 145.034 143.264 144.967 143.728 144.967V146.481C143.234 146.481 142.797 146.552 142.416 146.694C142.042 146.836 141.784 147.049 141.642 147.333V150.427H139.669V145.046Z" fill="#0F3A5F"/>
<path d="M136.108 150.595C135.054 150.595 134.224 150.349 133.619 149.855C133.021 149.362 132.722 148.663 132.722 147.759C132.722 146.869 132.987 146.167 133.518 145.651C134.056 145.135 134.83 144.877 135.839 144.877C136.482 144.877 137.031 145.001 137.487 145.247C137.95 145.487 138.298 145.819 138.53 146.245C138.769 146.664 138.889 147.138 138.889 147.669V148.398H134.594C134.669 148.697 134.856 148.914 135.155 149.048C135.454 149.183 135.861 149.25 136.377 149.25C136.728 149.25 137.087 149.22 137.453 149.16C137.827 149.1 138.149 149.018 138.418 148.914V150.214C138.141 150.326 137.794 150.416 137.375 150.483C136.964 150.558 136.542 150.595 136.108 150.595ZM137.027 147.165C136.997 146.873 136.878 146.645 136.669 146.481C136.459 146.316 136.172 146.234 135.805 146.234C135.447 146.234 135.163 146.32 134.953 146.492C134.744 146.656 134.624 146.881 134.594 147.165H137.027Z" fill="#0F3A5F"/>
<path d="M129.056 146.413H128.305V145.046H129.056V144.373C129.056 143.648 129.284 143.087 129.74 142.691C130.203 142.288 130.801 142.086 131.533 142.086C131.945 142.086 132.303 142.153 132.61 142.288V143.857C132.4 143.752 132.165 143.7 131.903 143.7C131.604 143.7 131.384 143.767 131.242 143.902C131.1 144.037 131.029 144.25 131.029 144.541V145.046H132.273V146.413H131.029V150.427H129.056V146.413Z" fill="#0F3A5F"/>
<path d="M125.369 150.595C124.936 150.595 124.484 150.551 124.013 150.461C123.542 150.379 123.168 150.259 122.892 150.102V148.656C123.198 148.835 123.564 148.985 123.99 149.104C124.424 149.216 124.82 149.272 125.179 149.272C125.44 149.272 125.631 149.254 125.751 149.216C125.87 149.179 125.93 149.104 125.93 148.992C125.93 148.902 125.889 148.831 125.807 148.779C125.732 148.719 125.59 148.659 125.381 148.6C125.179 148.532 124.943 148.461 124.674 148.387C124.218 148.252 123.86 148.114 123.598 147.972C123.336 147.83 123.142 147.65 123.015 147.434C122.888 147.217 122.824 146.944 122.824 146.615C122.824 146.032 123.052 145.599 123.508 145.315C123.972 145.023 124.603 144.877 125.403 144.877C125.792 144.877 126.199 144.919 126.625 145.001C127.059 145.083 127.384 145.191 127.601 145.326V146.75C127.376 146.6 127.077 146.477 126.704 146.38C126.337 146.283 125.994 146.234 125.672 146.234C125.418 146.234 125.22 146.26 125.078 146.313C124.936 146.357 124.865 146.44 124.865 146.559C124.865 146.671 124.936 146.757 125.078 146.817C125.22 146.877 125.474 146.952 125.84 147.041C126.079 147.101 126.18 147.127 126.143 147.12C126.621 147.247 126.991 147.389 127.253 147.546C127.515 147.703 127.698 147.89 127.802 148.106C127.914 148.316 127.971 148.585 127.971 148.914C127.971 149.429 127.746 149.84 127.298 150.147C126.857 150.446 126.214 150.595 125.369 150.595Z" fill="#0F3A5F"/>
<path d="M116.096 145.046H118.002V145.64C118.234 145.386 118.514 145.195 118.843 145.068C119.172 144.941 119.516 144.877 119.874 144.877C120.629 144.877 121.186 145.076 121.545 145.472C121.911 145.86 122.094 146.391 122.094 147.064V150.427H120.121V147.322C120.121 146.716 119.845 146.413 119.291 146.413C119.037 146.413 118.806 146.473 118.596 146.593C118.387 146.705 118.211 146.881 118.069 147.12V150.427H116.096V145.046Z" fill="#0F3A5F"/>
<path d="M111.479 150.595C110.807 150.595 110.261 150.435 109.843 150.113C109.431 149.784 109.226 149.328 109.226 148.745C109.226 148.14 109.424 147.677 109.82 147.355C110.224 147.026 110.799 146.862 111.547 146.862C111.838 146.862 112.13 146.896 112.421 146.963C112.713 147.023 112.963 147.105 113.172 147.209V147.097C113.172 146.522 112.702 146.234 111.76 146.234C111.102 146.234 110.5 146.361 109.955 146.615V145.259C110.194 145.147 110.508 145.057 110.896 144.99C111.285 144.915 111.689 144.877 112.107 144.877C113.109 144.877 113.864 145.079 114.372 145.483C114.888 145.879 115.146 146.436 115.146 147.153V150.427H113.296V149.968C113.094 150.162 112.84 150.315 112.533 150.427C112.227 150.539 111.876 150.595 111.479 150.595ZM112.062 149.385C112.294 149.385 112.511 149.34 112.713 149.25C112.915 149.153 113.068 149.029 113.172 148.88V148.409C112.851 148.192 112.485 148.084 112.074 148.084C111.812 148.084 111.61 148.14 111.468 148.252C111.326 148.364 111.255 148.529 111.255 148.745C111.255 148.947 111.322 149.104 111.457 149.216C111.599 149.328 111.801 149.385 112.062 149.385Z" fill="#0F3A5F"/>
<path d="M105.333 145.046H107.239V145.718C107.449 145.479 107.744 145.296 108.125 145.169C108.506 145.034 108.929 144.967 109.392 144.967V146.481C108.899 146.481 108.461 146.552 108.08 146.694C107.707 146.836 107.449 147.049 107.307 147.333V150.427H105.333V145.046Z" fill="#0F3A5F"/>
<path d="M101.358 144.261H99.149V142.59H105.562V144.261H103.342V150.427H101.358V144.261Z" fill="#0F3A5F"/>
<path d="M128.895 132.332H130.869V137.399L132.64 135.235H134.905L132.763 137.836L135.196 140.617H132.931L130.869 138.251V140.617H128.895V132.332Z" fill="#0F3A5F"/>
<path d="M121.943 135.235H123.849V135.83C124.08 135.575 124.361 135.385 124.69 135.258C125.018 135.131 125.362 135.067 125.721 135.067C126.476 135.067 127.033 135.265 127.392 135.661C127.758 136.05 127.941 136.581 127.941 137.253V140.617H125.968V137.511C125.968 136.906 125.691 136.603 125.138 136.603C124.884 136.603 124.652 136.663 124.443 136.783C124.234 136.895 124.058 137.07 123.916 137.309V140.617H121.943V135.235Z" fill="#0F3A5F"/>
<path d="M117.326 140.785C116.653 140.785 116.108 140.624 115.689 140.303C115.278 139.974 115.073 139.518 115.073 138.935C115.073 138.33 115.271 137.866 115.667 137.545C116.07 137.216 116.646 137.052 117.393 137.052C117.685 137.052 117.976 137.085 118.268 137.152C118.559 137.212 118.81 137.295 119.019 137.399V137.287C119.019 136.712 118.548 136.424 117.606 136.424C116.949 136.424 116.347 136.551 115.801 136.805V135.448C116.041 135.336 116.354 135.247 116.743 135.179C117.132 135.105 117.535 135.067 117.954 135.067C118.956 135.067 119.71 135.269 120.219 135.673C120.734 136.069 120.992 136.626 120.992 137.343V140.617H119.142V140.157C118.941 140.352 118.686 140.505 118.38 140.617C118.074 140.729 117.722 140.785 117.326 140.785ZM117.909 139.574C118.141 139.574 118.358 139.529 118.559 139.44C118.761 139.343 118.914 139.219 119.019 139.07V138.599C118.698 138.382 118.331 138.274 117.92 138.274C117.659 138.274 117.457 138.33 117.315 138.442C117.173 138.554 117.102 138.718 117.102 138.935C117.102 139.137 117.169 139.294 117.304 139.406C117.446 139.518 117.648 139.574 117.909 139.574Z" fill="#0F3A5F"/>
<path d="M107.852 132.78H111.821C112.575 132.78 113.17 132.967 113.603 133.341C114.044 133.714 114.265 134.249 114.265 134.944C114.265 135.273 114.19 135.579 114.04 135.863C113.891 136.147 113.678 136.371 113.401 136.536C113.783 136.685 114.063 136.902 114.242 137.186C114.422 137.463 114.511 137.825 114.511 138.274C114.511 138.752 114.399 139.171 114.175 139.529C113.951 139.881 113.648 140.15 113.267 140.337C112.893 140.524 112.475 140.617 112.011 140.617H107.852V132.78ZM111.383 135.886C111.966 135.886 112.258 135.613 112.258 135.067C112.258 134.761 112.183 134.551 112.034 134.439C111.884 134.32 111.656 134.26 111.35 134.26H109.836V135.886H111.383ZM111.507 139.137C111.843 139.137 112.093 139.073 112.258 138.946C112.422 138.819 112.504 138.595 112.504 138.274C112.504 137.952 112.418 137.721 112.247 137.579C112.075 137.429 111.813 137.354 111.462 137.354H109.836V139.137H111.507Z" fill="#0F3A5F"/>
</svg>
