<svg width="155" height="167" viewBox="0 0 155 167" fill="none" xmlns="http://www.w3.org/2000/svg">
<rect x="0.931992" y="0.707031" width="72.1782" height="49.1793" rx="5.5" fill="white" stroke="#D9D9D9"/>
<path fill-rule="evenodd" clip-rule="evenodd" d="M22.6473 34.2H18.2142L14.8898 21.5174C14.732 20.934 14.397 20.4183 13.9042 20.1752C12.6743 19.5643 11.3191 19.0781 9.84062 18.833V18.3447H16.9821C17.9678 18.3447 18.707 19.0781 18.8302 19.93L20.555 29.0784L24.9861 18.3447H29.296L22.6473 34.2ZM31.7601 34.2H27.5733L31.0209 18.3447H35.2077L31.7601 34.2ZM40.6243 22.7371C40.7475 21.8831 41.4867 21.3948 42.3492 21.3948C43.7044 21.2722 45.1807 21.5174 46.4127 22.1262L47.152 18.7125C45.9199 18.2242 44.5647 17.979 43.3348 17.979C39.2712 17.979 36.3143 20.1752 36.3143 23.2232C36.3143 25.542 38.4088 26.7596 39.8873 27.493C41.4867 28.2244 42.1028 28.7127 41.9796 29.444C41.9796 30.5411 40.7475 31.0294 39.5176 31.0294C38.0392 31.0294 36.5607 30.6637 35.2077 30.0528L34.4684 33.4686C35.9469 34.0774 37.5464 34.3226 39.0248 34.3226C43.5812 34.4431 46.4127 32.249 46.4127 28.9558C46.4127 24.8086 40.6243 24.5655 40.6243 22.7371ZM61.0654 34.2L57.741 18.3447H54.1703C53.431 18.3447 52.6918 18.833 52.4454 19.5643L46.2895 34.2H50.5995L51.4598 31.8833H56.7554L57.2482 34.2H61.0654ZM54.7863 22.6145L56.0162 28.5901H52.5686L54.7863 22.6145Z" fill="#172B85"/>
<rect x="82.1102" y="0.707031" width="72.1782" height="49.1793" rx="5.5" fill="white" stroke="#D9D9D9"/>
<path fill-rule="evenodd" clip-rule="evenodd" d="M118.722 36.0789C116.231 38.2289 112.999 39.5267 109.468 39.5267C101.588 39.5267 95.2004 33.065 95.2004 25.0939C95.2004 17.1229 101.588 10.6611 109.468 10.6611C112.999 10.6611 116.231 11.959 118.722 14.1089C121.213 11.959 124.445 10.6611 127.976 10.6611C135.856 10.6611 142.244 17.1229 142.244 25.0939C142.244 33.065 135.856 39.5267 127.976 39.5267C124.445 39.5267 121.213 38.2289 118.722 36.0789Z" fill="#ED0006"/>
<path fill-rule="evenodd" clip-rule="evenodd" d="M118.722 36.0789C121.79 33.4317 123.735 29.4926 123.735 25.0939C123.735 20.6953 121.79 16.7562 118.722 14.1089C121.213 11.959 124.445 10.6611 127.976 10.6611C135.856 10.6611 142.244 17.1229 142.244 25.0939C142.244 33.065 135.856 39.5267 127.976 39.5267C124.445 39.5267 121.213 38.2289 118.722 36.0789Z" fill="#F9A000"/>
<path fill-rule="evenodd" clip-rule="evenodd" d="M118.722 14.1089C121.79 16.7561 123.735 20.6952 123.735 25.0938C123.735 29.4925 121.79 33.4315 118.722 36.0788C115.654 33.4315 113.709 29.4925 113.709 25.0938C113.709 20.6952 115.654 16.7561 118.722 14.1089Z" fill="#FF5E00"/>
<rect x="0.931992" y="58.8865" width="72.1782" height="49.1793" rx="5.5" fill="white" stroke="#D9D9D9"/>
<path d="M42.4466 83.7416C42.4466 91.7127 36.059 98.1744 28.1794 98.1744C20.2999 98.1744 13.9122 91.7127 13.9122 83.7416C13.9122 75.7706 20.2999 69.3088 28.1794 69.3088C36.059 69.3088 42.4466 75.7706 42.4466 83.7416Z" fill="#ED0006"/>
<path d="M60.9553 83.7416C60.9553 91.7127 54.5677 98.1744 46.6882 98.1744C38.8086 98.1744 32.421 91.7127 32.421 83.7416C32.421 75.7706 38.8086 69.3088 46.6882 69.3088C54.5677 69.3088 60.9553 75.7706 60.9553 83.7416Z" fill="#0099DF"/>
<path fill-rule="evenodd" clip-rule="evenodd" d="M37.4338 94.7265C40.5014 92.0792 42.4466 88.1402 42.4466 83.7415C42.4466 79.3429 40.5014 75.4038 37.4338 72.7566C34.3663 75.4038 32.4211 79.3429 32.4211 83.7415C32.4211 88.1402 34.3663 92.0792 37.4338 94.7265Z" fill="#6C6BBD"/>
<rect x="82.1102" y="58.8865" width="72.1782" height="49.1793" rx="5.5" fill="#1F72CD" stroke="#D9D9D9"/>
<path fill-rule="evenodd" clip-rule="evenodd" d="M94.7293 76.1582L87.8826 91.3097H96.0791L97.0952 88.894H99.4178L100.434 91.3097H109.456V89.4659L110.26 91.3097H114.927L115.731 89.427V91.3097H134.494L136.776 88.9567L138.912 91.3097L148.549 91.3292L141.681 83.7763L148.549 76.1582H139.061L136.84 78.4678L134.771 76.1582H114.359L112.606 80.0689L110.813 76.1582H102.633V77.9393L101.723 76.1582H94.7293ZM122.748 78.3097H133.523L136.819 81.8695L140.221 78.3097H143.516L138.509 83.7741L143.516 89.1756H140.071L136.776 85.5745L133.356 89.1756H122.748V78.3097ZM125.409 82.5455V80.5608V80.5589H132.132L135.066 83.733L132.002 86.9244H125.409V84.7577H131.287V82.5455H125.409ZM96.3153 78.3097H100.311L104.852 88.5841V78.3097H109.229L112.736 85.6764L115.969 78.3097H120.324V89.182H117.674L117.653 80.6626L113.789 89.182H111.419L107.534 80.6626V89.182H102.083L101.049 86.7446H95.466L94.4346 89.1798H91.5139L96.3153 78.3097ZM96.4193 84.4913L98.2589 80.1493L100.096 84.4913H96.4193Z" fill="white"/>
<rect x="41.5211" y="117.066" width="72.1782" height="49.1793" rx="5.5" fill="white" stroke="#D9D9D9"/>
<path d="M95.8682 145.463H97.7742V146.135C97.9835 145.896 98.2787 145.713 98.6599 145.586C99.0411 145.452 99.4634 145.384 99.9268 145.384V146.898C99.4335 146.898 98.9963 146.969 98.6151 147.111C98.2414 147.253 97.9835 147.466 97.8415 147.75V150.844H95.8682V145.463Z" fill="#0F3A5F"/>
<path d="M92.3073 151.013C91.2534 151.013 90.4238 150.766 89.8183 150.273C89.2204 149.779 88.9214 149.08 88.9214 148.176C88.9214 147.287 89.1868 146.584 89.7174 146.068C90.2556 145.553 91.0292 145.295 92.0382 145.295C92.681 145.295 93.2304 145.418 93.6863 145.665C94.1498 145.904 94.4973 146.236 94.729 146.662C94.9682 147.081 95.0878 147.556 95.0878 148.086V148.815H90.7938C90.8685 149.114 91.0554 149.331 91.3543 149.465C91.6533 149.6 92.0607 149.667 92.5764 149.667C92.9277 149.667 93.2865 149.637 93.6527 149.578C94.0264 149.518 94.3478 149.436 94.6169 149.331V150.631C94.3404 150.744 93.9928 150.833 93.5742 150.9C93.1631 150.975 92.7408 151.013 92.3073 151.013ZM93.2267 147.582C93.1968 147.29 93.0772 147.062 92.8679 146.898C92.6586 146.734 92.3709 146.651 92.0046 146.651C91.6458 146.651 91.3618 146.737 91.1525 146.909C90.9432 147.074 90.8237 147.298 90.7938 147.582H93.2267Z" fill="#0F3A5F"/>
<path d="M85.255 146.831H84.5038V145.463H85.255V144.79C85.255 144.065 85.4829 143.504 85.9389 143.108C86.4023 142.705 87.0002 142.503 87.7327 142.503C88.1438 142.503 88.5026 142.57 88.809 142.705V144.274C88.5998 144.17 88.3643 144.117 88.1027 144.117C87.8037 144.117 87.5832 144.185 87.4412 144.319C87.2992 144.454 87.2282 144.667 87.2282 144.958V145.463H88.4727V146.831H87.2282V150.844H85.255V146.831Z" fill="#0F3A5F"/>
<path d="M81.5687 151.013C81.1352 151.013 80.683 150.968 80.2121 150.878C79.7412 150.796 79.3675 150.676 79.0909 150.519V149.073C79.3974 149.252 79.7636 149.402 80.1897 149.521C80.6232 149.634 81.0193 149.69 81.3781 149.69C81.6397 149.69 81.8303 149.671 81.9499 149.634C82.0695 149.596 82.1293 149.521 82.1293 149.409C82.1293 149.32 82.0882 149.249 82.006 149.196C81.9312 149.137 81.7892 149.077 81.5799 149.017C81.3781 148.95 81.1427 148.879 80.8736 148.804C80.4177 148.669 80.0589 148.531 79.7973 148.389C79.5357 148.247 79.3413 148.068 79.2143 147.851C79.0872 147.634 79.0237 147.361 79.0237 147.032C79.0237 146.449 79.2516 146.016 79.7076 145.732C80.171 145.44 80.8026 145.295 81.6024 145.295C81.991 145.295 82.3984 145.336 82.8244 145.418C83.2579 145.5 83.5831 145.609 83.7998 145.743V147.167C83.5756 147.018 83.2766 146.894 82.9029 146.797C82.5367 146.7 82.1928 146.651 81.8714 146.651C81.6173 146.651 81.4192 146.677 81.2772 146.73C81.1352 146.775 81.0642 146.857 81.0642 146.976C81.0642 147.089 81.1352 147.174 81.2772 147.234C81.4192 147.294 81.6734 147.369 82.0396 147.459C82.2788 147.518 82.3797 147.544 82.3423 147.537C82.8207 147.664 83.1907 147.806 83.4523 147.963C83.7139 148.12 83.897 148.307 84.0016 148.524C84.1138 148.733 84.1698 149.002 84.1698 149.331C84.1698 149.847 83.9456 150.258 83.4971 150.564C83.0561 150.863 82.4133 151.013 81.5687 151.013Z" fill="#0F3A5F"/>
<path d="M72.2954 145.463H74.2014V146.057C74.4331 145.803 74.7134 145.612 75.0422 145.485C75.3711 145.358 75.7149 145.295 76.0737 145.295C76.8286 145.295 77.3855 145.493 77.7442 145.889C78.1105 146.278 78.2936 146.808 78.2936 147.481V150.844H76.3204V147.739C76.3204 147.133 76.0438 146.831 75.4907 146.831C75.2366 146.831 75.0049 146.89 74.7956 147.01C74.5863 147.122 74.4107 147.298 74.2686 147.537V150.844H72.2954V145.463Z" fill="#0F3A5F"/>
<path d="M67.6788 151.013C67.0061 151.013 66.4604 150.852 66.0419 150.53C65.6308 150.202 65.4252 149.746 65.4252 149.163C65.4252 148.557 65.6233 148.094 66.0194 147.772C66.423 147.444 66.9986 147.279 67.746 147.279C68.0375 147.279 68.329 147.313 68.6205 147.38C68.912 147.44 69.1624 147.522 69.3717 147.627V147.515C69.3717 146.939 68.9008 146.651 67.959 146.651C67.3013 146.651 66.6996 146.778 66.154 147.032V145.676C66.3932 145.564 66.7071 145.474 67.0957 145.407C67.4844 145.332 67.888 145.295 68.3066 145.295C69.3082 145.295 70.0631 145.496 70.5713 145.9C71.0871 146.296 71.3449 146.853 71.3449 147.571V150.844H69.495V150.385C69.2932 150.579 69.0391 150.732 68.7326 150.844C68.4262 150.957 68.0749 151.013 67.6788 151.013ZM68.2618 149.802C68.4935 149.802 68.7102 149.757 68.912 149.667C69.1138 149.57 69.2671 149.447 69.3717 149.297V148.826C69.0503 148.61 68.6841 148.501 68.273 148.501C68.0114 148.501 67.8096 148.557 67.6675 148.669C67.5255 148.781 67.4545 148.946 67.4545 149.163C67.4545 149.364 67.5218 149.521 67.6563 149.634C67.7983 149.746 68.0002 149.802 68.2618 149.802Z" fill="#0F3A5F"/>
<path d="M61.5327 145.463H63.4387V146.135C63.6479 145.896 63.9432 145.713 64.3244 145.586C64.7056 145.452 65.1279 145.384 65.5913 145.384V146.898C65.098 146.898 64.6607 146.969 64.2795 147.111C63.9058 147.253 63.6479 147.466 63.5059 147.75V150.844H61.5327V145.463Z" fill="#0F3A5F"/>
<path d="M57.557 144.678H55.3483V143.007H61.7614V144.678H59.5415V150.844H57.557V144.678Z" fill="#0F3A5F"/>
<path d="M85.0946 132.749H87.0678V137.816L88.8393 135.653H91.104L88.9626 138.254L91.3955 141.034H89.1308L87.0678 138.669V141.034H85.0946V132.749Z" fill="#0F3A5F"/>
<path d="M78.1421 135.653H80.048V136.247C80.2798 135.993 80.56 135.802 80.8889 135.675C81.2178 135.548 81.5616 135.484 81.9204 135.484C82.6753 135.484 83.2321 135.682 83.5909 136.079C83.9572 136.467 84.1403 136.998 84.1403 137.671V141.034H82.167V137.929C82.167 137.323 81.8905 137.02 81.3374 137.02C81.0833 137.02 80.8515 137.08 80.6423 137.2C80.433 137.312 80.2573 137.488 80.1153 137.727V141.034H78.1421V135.653Z" fill="#0F3A5F"/>
<path d="M73.5254 141.202C72.8527 141.202 72.3071 141.042 71.8885 140.72C71.4774 140.391 71.2719 139.935 71.2719 139.352C71.2719 138.747 71.47 138.284 71.8661 137.962C72.2697 137.633 72.8453 137.469 73.5927 137.469C73.8842 137.469 74.1757 137.502 74.4672 137.57C74.7587 137.63 75.0091 137.712 75.2184 137.816V137.704C75.2184 137.129 74.7475 136.841 73.8057 136.841C73.148 136.841 72.5463 136.968 72.0006 137.222V135.866C72.2398 135.753 72.5538 135.664 72.9424 135.596C73.3311 135.522 73.7347 135.484 74.1533 135.484C75.1549 135.484 75.9098 135.686 76.418 136.09C76.9338 136.486 77.1916 137.043 77.1916 137.76V141.034H75.3417V140.574C75.1399 140.769 74.8858 140.922 74.5793 141.034C74.2729 141.146 73.9216 141.202 73.5254 141.202ZM74.1084 139.991C74.3401 139.991 74.5569 139.947 74.7587 139.857C74.9605 139.76 75.1137 139.636 75.2184 139.487V139.016C74.897 138.799 74.5307 138.691 74.1196 138.691C73.858 138.691 73.6562 138.747 73.5142 138.859C73.3722 138.971 73.3012 139.136 73.3012 139.352C73.3012 139.554 73.3685 139.711 73.503 139.823C73.645 139.935 73.8468 139.991 74.1084 139.991Z" fill="#0F3A5F"/>
<path d="M64.0509 133.197H68.0198C68.7747 133.197 69.369 133.384 69.8025 133.758C70.2435 134.132 70.464 134.666 70.464 135.361C70.464 135.69 70.3892 135.996 70.2397 136.28C70.0902 136.564 69.8772 136.789 69.6007 136.953C69.9819 137.103 70.2622 137.319 70.4415 137.603C70.6209 137.88 70.7106 138.242 70.7106 138.691C70.7106 139.169 70.5985 139.588 70.3743 139.947C70.15 140.298 69.8473 140.567 69.4661 140.754C69.0924 140.941 68.6738 141.034 68.2104 141.034H64.0509V133.197ZM67.5826 136.303C68.1656 136.303 68.4571 136.03 68.4571 135.484C68.4571 135.178 68.3823 134.969 68.2329 134.857C68.0834 134.737 67.8554 134.677 67.5489 134.677H66.0354V136.303H67.5826ZM67.7059 139.554C68.0423 139.554 68.2926 139.491 68.4571 139.364C68.6215 139.237 68.7037 139.012 68.7037 138.691C68.7037 138.37 68.6178 138.138 68.4459 137.996C68.274 137.846 68.0124 137.772 67.6611 137.772H66.0354V139.554H67.7059Z" fill="#0F3A5F"/>
</svg>
