<svg width="32" height="32" viewBox="0 0 32 32" fill="none" xmlns="http://www.w3.org/2000/svg">
<g clip-path="url(#clip0_37_1021)">
<path d="M24.3137 20.1216C24.3137 20.7744 23.7958 21.3024 23.16 21.3024H9.15375C8.51484 21.3024 8 20.7744 8 20.1216C8 19.4688 8.51484 18.9408 9.15375 18.9408H23.16C23.7989 18.9408 24.3137 19.4688 24.3137 20.1216Z" fill="#891A1C"/>
<path d="M24.3137 16.9632C24.3137 17.616 23.7958 18.144 23.16 18.144H9.15375C8.51484 18.144 8 17.616 8 16.9632C8 16.3104 8.51484 15.7824 9.15375 15.7824H23.16C23.7989 15.7856 24.3137 16.3136 24.3137 16.9632Z" fill="#BCBEC0"/>
<path d="M24.3137 13.808C24.3137 14.4608 23.7958 14.9888 23.16 14.9888H9.15375C8.51484 14.9888 8 14.4608 8 13.808C8 13.1552 8.51484 12.6272 9.15375 12.6272H23.16C23.7989 12.6272 24.3137 13.1552 24.3137 13.808Z" fill="#D1D3D4"/>
<path d="M24.3137 10.6496C24.3137 11.3024 23.7958 11.8304 23.16 11.8304H9.15375C8.51484 11.8304 8 11.3024 8 10.6496C8 9.99681 8.51484 9.46881 9.15375 9.46881H23.16C23.7989 9.46881 24.3137 10 24.3137 10.6496Z" fill="#808285"/>
<path d="M24.3137 7.4944C24.3137 8.1472 23.7958 8.6752 23.16 8.6752H9.15375C8.51484 8.6752 8 8.1472 8 7.4944C8 6.8416 8.51484 6.3136 9.15375 6.3136H23.16C23.7989 6.3136 24.3137 6.8416 24.3137 7.4944Z" fill="#414042"/>
<path d="M24.3137 4.33601C24.3137 4.98881 23.7958 5.51681 23.16 5.51681H9.15375C8.51484 5.51681 8 4.98881 8 4.33601C8 3.68321 8.51484 3.15521 9.15375 3.15521H23.16C23.7989 3.15521 24.3137 3.68641 24.3137 4.33601Z" fill="#434345"/>
<path d="M24.3137 1.1808C24.3137 1.8336 23.7958 2.3616 23.16 2.3616H9.15375C8.51484 2.3616 8 1.8336 8 1.1808C8 0.528 8.51484 0 9.15375 0H23.16C23.7989 0 24.3137 0.528 24.3137 1.1808Z" fill="#434345"/>
<path d="M22.2017 22.736L23.6097 23.1616L23.8796 22.6816L22.2389 22.7456" fill="#2F839A"/>
<path d="M20.9983 22.7424L22.9553 23.7664L23.4081 23.4976L20.9983 22.7424Z" fill="#BAE2DF"/>
<path d="M20.53 22.8992C20.53 22.8992 22.4591 23.8688 22.4839 23.872C22.5087 23.8752 22.2885 24.128 22.2885 24.128L18.9761 23.7856L20.53 22.8992Z" fill="#005B6B"/>
<path d="M18.1418 22.3104L20.105 22.7424L18.0177 23.84L16.6593 23.7248L18.1418 22.3104Z" fill="#0E97B2"/>
<path d="M16.6965 25.3504L18.1728 24.8352L18.1263 23.968C18.1232 23.968 15.9863 25.0848 16.6965 25.3504Z" fill="#CDEAEC"/>
<path d="M16.5135 26.3776L17.2393 26.5088L16.5911 26.864L16.5135 26.3776Z" fill="#003742"/>
<path d="M16.6469 26.0576L16.6718 25.744L17.2672 25.6512L18.0519 25.2576C18.0519 25.2576 18.2101 25.2288 18.2163 25.2704C18.2225 25.312 18.2287 25.2192 18.2039 25.44C18.1791 25.6608 18.269 25.5648 18.1481 25.7152C18.0271 25.8688 17.6611 26.2912 17.6611 26.2912L16.6407 26.0928" fill="#2288A3"/>
<path d="M17.8162 26.6784L19.5282 27.5616L18.4706 28.1184L16.5508 28.0768L16.619 27.2512L17.8503 26.6976" fill="#BBE4EB"/>
<path d="M19.0505 26.784L22.2451 26.8704L21.3611 28.0256L19.0505 26.784Z" fill="#056073"/>
<path d="M21.9722 28.0768L22.9646 27.4688L22.9491 28.16L22.0032 28.08" fill="#C2E7EF"/>
<path d="M21.5224 28.5952L23.0235 28.8096L21.9008 30.0032L21.2898 30.1728L21.2805 28.8224L21.5224 28.5952Z" fill="#2793AA"/>
<path d="M19.1188 28.208L20.685 28.2912L19.9965 27.7984L19.1188 28.208Z" fill="#1090A3"/>
<path d="M15.5552 30.256L16.4608 30.3328L15.4436 31.6672L14.4108 31.6128L14.4325 31.3248L15.5552 30.256Z" fill="#155662"/>
<path d="M16.8858 30.3104L18.3807 30.9952L17.6766 31.7024L15.8065 31.6736L16.8858 30.3104Z" fill="#C2E8FA"/>
<path d="M17.7975 30.304L19.0536 30.9568L19.9748 30.4384L17.8006 30.2528" fill="#288BA3"/>
<path d="M18.0705 31.7696L20.744 32L18.911 31.2096L18.0705 31.7696Z" fill="#7B9597"/>
<path d="M19.5561 31.0016L21.2433 31.7696L22.3536 30.64L21.2867 30.4064L19.6057 31.0048" fill="#005B6B"/>
</g>
<defs>
<clipPath id="clip0_37_1021">
<rect width="16.3137" height="32" fill="white" transform="translate(8)"/>
</clipPath>
</defs>
</svg>
