<svg width="94" height="185" viewBox="0 0 94 185" fill="none" xmlns="http://www.w3.org/2000/svg">
<g clip-path="url(#clip0_19_1759)">
<path d="M94 115.941C94 119.702 91.0156 122.745 87.3521 122.745H6.64791C2.96654 122.745 0 119.702 0 115.941C0 112.18 2.96654 109.137 6.64791 109.137H87.3521C91.0335 109.137 94 112.18 94 115.941Z" fill="#891A1C"/>
<path d="M94 97.7423C94 101.504 91.0156 104.546 87.3521 104.546H6.64791C2.96654 104.546 0 101.504 0 97.7423C0 93.9808 2.96654 90.9385 6.64791 90.9385H87.3521C91.0335 90.9569 94 93.9993 94 97.7423Z" fill="#BCBEC0"/>
<path d="M94 79.5621C94 83.3235 91.0156 86.3659 87.3521 86.3659H6.64791C2.96654 86.3659 0 83.3235 0 79.5621C0 75.8006 2.96654 72.7583 6.64791 72.7583H87.3521C91.0335 72.7583 94 75.8006 94 79.5621Z" fill="#D1D3D4"/>
<path d="M94 61.3631C94 65.1246 91.0156 68.1669 87.3521 68.1669H6.64791C2.96654 68.1669 0 65.1246 0 61.3631C0 57.6017 2.96654 54.5593 6.64791 54.5593H87.3521C91.0335 54.5593 94 57.6201 94 61.3631Z" fill="#808285"/>
<path d="M94 43.1829C94 46.9444 91.0156 49.9867 87.3521 49.9867H6.64791C2.96654 49.9867 0 46.9444 0 43.1829C0 39.4215 2.96654 36.3792 6.64791 36.3792H87.3521C91.0335 36.3792 94 39.4215 94 43.1829Z" fill="#414042"/>
<path d="M94 24.9842C94 28.7457 91.0156 31.788 87.3521 31.788H6.64791C2.96654 31.788 0 28.7457 0 24.9842C0 21.2228 2.96654 18.1804 6.64791 18.1804H87.3521C91.0335 18.1804 94 21.2412 94 24.9842Z" fill="#434345"/>
<path d="M94 6.80379C94 10.5652 91.0156 13.6076 87.3521 13.6076H6.64791C2.96654 13.6076 0 10.5652 0 6.80379C0 3.04235 2.96654 0 6.64791 0H87.3521C91.0335 0 94 3.04235 94 6.80379Z" fill="#434345"/>
<path d="M81.83 131.005L89.9433 133.458L91.4981 130.692L82.0445 131.061" fill="#2F839A"/>
<path d="M74.8962 131.042L86.1726 136.943L88.7817 135.394L74.8962 131.042Z" fill="#BAE2DF"/>
<path d="M72.1977 131.946C72.1977 131.946 83.3133 137.532 83.4563 137.551C83.5993 137.569 82.3304 139.026 82.3304 139.026L63.2445 137.053L72.1977 131.946Z" fill="#005B6B"/>
<path d="M58.4373 128.553L69.7494 131.042L57.7225 137.367L49.8951 136.703L58.4373 128.553Z" fill="#0E97B2"/>
<path d="M50.1095 146.069L58.616 143.101L58.3479 138.104C58.3301 138.104 46.0171 144.539 50.1095 146.069Z" fill="#CDEAEC"/>
<path d="M49.0551 151.988L53.2369 152.744L49.5019 154.791L49.0551 151.988Z" fill="#003742"/>
<path d="M49.8236 150.144L49.9665 148.337L53.3977 147.803L57.919 145.535C57.919 145.535 58.8304 145.369 58.8662 145.608C58.9019 145.848 58.9377 145.313 58.7947 146.586C58.6517 147.858 59.17 147.305 58.473 148.171C57.7761 149.056 55.6673 151.49 55.6673 151.49L49.7878 150.347" fill="#2288A3"/>
<path d="M56.5608 153.721L66.4255 158.81L60.3316 162.019L49.2696 161.779L49.6627 157.022L56.7574 153.832" fill="#BBE4EB"/>
<path d="M63.6734 154.33L82.0802 154.828L76.9871 161.484L63.6734 154.33Z" fill="#056073"/>
<path d="M80.5076 161.779L86.2263 158.276L86.1369 162.259L80.6863 161.798" fill="#C2E7EF"/>
<path d="M77.9164 164.766L86.5658 166.001L80.0966 172.879L76.5761 173.856L76.5225 166.075L77.9164 164.766Z" fill="#2793AA"/>
<path d="M64.0665 162.535L73.0912 163.015L69.1239 160.175L64.0665 162.535Z" fill="#1090A3"/>
<path d="M43.5331 174.336L48.7513 174.778L42.8897 182.467L36.9388 182.154L37.0639 180.494L43.5331 174.336Z" fill="#155662"/>
<path d="M51.1996 174.649L59.8133 178.595L55.7566 182.67L44.9806 182.504L51.1996 174.649Z" fill="#C2E8FA"/>
<path d="M56.4536 174.612L63.6913 178.374L68.9989 175.387L56.4715 174.317" fill="#288BA3"/>
<path d="M58.0262 183.057L73.4308 184.385L62.8692 179.83L58.0262 183.057Z" fill="#7B9597"/>
<path d="M66.5863 178.632L76.308 183.057L82.7057 176.548L76.5582 175.202L66.8722 178.65" fill="#005B6B"/>
</g>
<defs>
<clipPath id="clip0_19_1759">
<rect width="94" height="184.385" fill="white"/>
</clipPath>
</defs>
</svg>
