<svg width="155" height="167" viewBox="0 0 155 167" fill="none" xmlns="http://www.w3.org/2000/svg">
<rect x="0.821808" y="0.5" width="72.1782" height="49.1793" rx="5.5" fill="white" stroke="#D9D9D9"/>
<path fill-rule="evenodd" clip-rule="evenodd" d="M22.5372 33.993H18.104L14.7796 21.3104C14.6219 20.727 14.2868 20.2112 13.794 19.9682C12.5641 19.3573 11.2089 18.8711 9.73044 18.6259V18.1376H16.8719C17.8576 18.1376 18.5968 18.8711 18.72 19.723L20.4449 28.8713L24.8759 18.1376H29.1859L22.5372 33.993ZM31.6499 33.993H27.4632L30.9107 18.1376H35.0975L31.6499 33.993ZM40.5141 22.53C40.6373 21.6761 41.3766 21.1878 42.239 21.1878C43.5942 21.0652 45.0705 21.3104 46.3026 21.9192L47.0418 18.5054C45.8097 18.0172 44.4545 17.772 43.2246 17.772C39.161 17.772 36.2042 19.9682 36.2042 23.0162C36.2042 25.335 38.2986 26.5525 39.7771 27.286C41.3766 28.0174 41.9926 28.5056 41.8694 29.237C41.8694 30.3341 40.6373 30.8223 39.4075 30.8223C37.929 30.8223 36.4506 30.4567 35.0975 29.8458L34.3583 33.2616C35.8367 33.8704 37.4362 34.1156 38.9146 34.1156C43.471 34.2361 46.3026 32.042 46.3026 28.7487C46.3026 24.6015 40.5141 24.3585 40.5141 22.53ZM60.9552 33.993L57.6308 18.1376H54.0601C53.3209 18.1376 52.5816 18.6259 52.3352 19.3573L46.1794 33.993H50.4893L51.3496 31.6763H56.6452L57.138 33.993H60.9552ZM54.6761 22.4075L55.906 28.3831H52.4584L54.6761 22.4075Z" fill="#172B85"/>
<rect x="82" y="0.5" width="72.1782" height="49.1793" rx="5.5" fill="white" stroke="#D9D9D9"/>
<path fill-rule="evenodd" clip-rule="evenodd" d="M118.612 35.8719C116.12 38.0218 112.889 39.3197 109.357 39.3197C101.478 39.3197 95.0902 32.8579 95.0902 24.8869C95.0902 16.9159 101.478 10.4541 109.357 10.4541C112.889 10.4541 116.12 11.752 118.612 13.9019C121.103 11.752 124.335 10.4541 127.866 10.4541C135.746 10.4541 142.133 16.9159 142.133 24.8869C142.133 32.8579 135.746 39.3197 127.866 39.3197C124.335 39.3197 121.103 38.0218 118.612 35.8719Z" fill="#ED0006"/>
<path fill-rule="evenodd" clip-rule="evenodd" d="M118.612 35.8719C121.679 33.2247 123.625 29.2856 123.625 24.8869C123.625 20.4882 121.679 16.5491 118.612 13.9019C121.103 11.752 124.335 10.4541 127.866 10.4541C135.746 10.4541 142.133 16.9159 142.133 24.8869C142.133 32.8579 135.746 39.3197 127.866 39.3197C124.335 39.3197 121.103 38.0218 118.612 35.8719Z" fill="#F9A000"/>
<path fill-rule="evenodd" clip-rule="evenodd" d="M118.612 13.9019C121.679 16.5491 123.625 20.4882 123.625 24.8868C123.625 29.2855 121.679 33.2245 118.612 35.8718C115.544 33.2245 113.599 29.2855 113.599 24.8868C113.599 20.4882 115.544 16.5491 118.612 13.9019Z" fill="#FF5E00"/>
<g clip-path="url(#clip0_105_1014)">
<path d="M0.320007 64.4519C0.320007 60.9877 3.05032 58.1794 6.41834 58.1794H67.4017C70.7697 58.1794 73.5 60.9877 73.5 64.4519V102.087C73.5 105.551 70.7697 108.359 67.4017 108.359H6.41834C3.05032 108.359 0.320007 105.551 0.320007 102.087V64.4519Z" fill="white"/>
<path d="M55.205 83.2774C55.2011 93.6705 47.0058 102.092 36.9023 102.087C26.7987 102.083 18.6111 93.6546 18.615 83.2614C18.6189 72.8723 26.8074 64.4529 36.9081 64.4519C47.0126 64.4509 55.204 72.8763 55.205 83.2694V83.2774Z" fill="#F7931A"/>
<path d="M40.2451 79.6191C40.2451 82.0238 36.5746 81.7431 35.4067 81.7431V77.4931C36.5746 77.4911 40.2402 77.1089 40.2402 79.6171L40.2451 79.6191ZM41.2069 86.23C41.2069 88.8726 36.8088 88.572 35.4057 88.573V83.8871C36.8088 83.8861 41.2079 83.471 41.2079 86.228L41.2069 86.23ZM44.1022 78.6656C43.8671 76.1445 41.7508 75.2994 39.08 75.0586V71.562H37.0111V74.967C36.4672 74.967 35.9108 74.9779 35.3583 74.9899V71.563H33.2903V75.0586C32.8423 75.0675 32.402 75.0765 31.9733 75.0765V75.0655H29.1187V77.3418C29.1187 77.3418 30.6466 77.312 30.6215 77.3418C31.1992 77.2652 31.7304 77.6812 31.8117 78.2744V82.2557C31.8843 82.2557 31.9578 82.2607 32.0304 82.2707H31.8117V87.8514C31.7875 88.2665 31.4421 88.582 31.0395 88.5571H31.0376C31.0637 88.581 29.5338 88.5571 29.5338 88.5571L29.1225 91.0991H31.8156C32.3168 91.0991 32.8094 91.1081 33.2932 91.1121V94.6484H35.3602V91.1489C35.9273 91.1608 36.4769 91.1658 37.013 91.1658V94.6494H39.079V91.119C42.5627 90.914 44.9935 90.0122 45.2954 86.652C45.5393 83.9458 44.3016 82.7385 42.3275 82.2507C43.6426 81.6098 44.3713 80.1367 44.1022 78.6656Z" fill="white"/>
</g>
<g clip-path="url(#clip1_105_1014)">
<path d="M81.5 64.4519C81.5 60.9877 84.2303 58.1794 87.5983 58.1794H148.582C151.95 58.1794 154.68 60.9877 154.68 64.4519V102.087C154.68 105.551 151.95 108.359 148.582 108.359H87.5983C84.2303 108.359 81.5 105.551 81.5 102.087V64.4519Z" fill="white"/>
<path fill-rule="evenodd" clip-rule="evenodd" d="M106.856 83.618L118.086 90.4463V64.4519L106.856 83.618Z" fill="#8C8C8C"/>
<path fill-rule="evenodd" clip-rule="evenodd" d="M118.087 64.4519V90.4463L129.317 83.618L118.087 64.4519Z" fill="#343434"/>
<path fill-rule="evenodd" clip-rule="evenodd" d="M118.087 78.3682L106.856 83.6178L118.086 90.4461L129.317 83.6185L118.087 78.3682Z" fill="#151515"/>
<path fill-rule="evenodd" clip-rule="evenodd" d="M118.087 78.3682L106.856 83.6178L118.086 90.4461L118.087 78.3682Z" fill="#393939"/>
<path fill-rule="evenodd" clip-rule="evenodd" d="M106.856 85.8086L118.086 102.086V92.6331L106.856 85.8086Z" fill="#8C8C8C"/>
<path fill-rule="evenodd" clip-rule="evenodd" d="M118.087 92.6331V102.087L129.324 85.8086L118.087 92.6331Z" fill="#343434"/>
</g>
<rect x="41.4109" y="116.859" width="72.1782" height="49.1793" rx="5.5" fill="white" stroke="#D9D9D9"/>
<path d="M95.7581 145.256H97.664V145.929C97.8733 145.69 98.1686 145.507 98.5497 145.38C98.9309 145.245 99.3532 145.178 99.8167 145.178V146.692C99.3233 146.692 98.8861 146.763 98.5049 146.905C98.1312 147.047 97.8733 147.26 97.7313 147.544V150.638H95.7581V145.256Z" fill="#0F3A5F"/>
<path d="M92.1972 150.806C91.1433 150.806 90.3136 150.56 89.7082 150.066C89.1102 149.573 88.8112 148.874 88.8112 147.97C88.8112 147.08 89.0766 146.378 89.6073 145.862C90.1454 145.346 90.919 145.088 91.9281 145.088C92.5709 145.088 93.1202 145.212 93.5762 145.458C94.0396 145.698 94.3872 146.03 94.6189 146.456C94.858 146.875 94.9776 147.349 94.9776 147.88V148.609H90.6836C90.7583 148.908 90.9452 149.125 91.2442 149.259C91.5431 149.394 91.9505 149.461 92.4662 149.461C92.8175 149.461 93.1763 149.431 93.5425 149.371C93.9163 149.311 94.2377 149.229 94.5067 149.125V150.425C94.2302 150.537 93.8826 150.627 93.4641 150.694C93.053 150.769 92.6307 150.806 92.1972 150.806ZM93.1165 147.376C93.0866 147.084 92.967 146.856 92.7577 146.692C92.5484 146.527 92.2607 146.445 91.8944 146.445C91.5357 146.445 91.2516 146.531 91.0424 146.703C90.8331 146.867 90.7135 147.092 90.6836 147.376H93.1165Z" fill="#0F3A5F"/>
<path d="M85.1448 146.624H84.3936V145.256H85.1448V144.584C85.1448 143.859 85.3727 143.298 85.8287 142.902C86.2921 142.498 86.8901 142.297 87.6225 142.297C88.0336 142.297 88.3924 142.364 88.6989 142.498V144.068C88.4896 143.963 88.2541 143.911 87.9925 143.911C87.6936 143.911 87.4731 143.978 87.331 144.113C87.189 144.247 87.118 144.46 87.118 144.752V145.256H88.3625V146.624H87.118V150.638H85.1448V146.624Z" fill="#0F3A5F"/>
<path d="M81.4585 150.806C81.025 150.806 80.5728 150.761 80.1019 150.672C79.631 150.59 79.2573 150.47 78.9808 150.313V148.867C79.2872 149.046 79.6535 149.196 80.0795 149.315C80.513 149.427 80.9092 149.483 81.2679 149.483C81.5295 149.483 81.7201 149.465 81.8397 149.427C81.9593 149.39 82.0191 149.315 82.0191 149.203C82.0191 149.113 81.978 149.042 81.8958 148.99C81.821 148.93 81.679 148.87 81.4697 148.811C81.2679 148.743 81.0325 148.672 80.7634 148.598C80.3075 148.463 79.9487 148.325 79.6871 148.183C79.4255 148.041 79.2312 147.861 79.1041 147.645C78.977 147.428 78.9135 147.155 78.9135 146.826C78.9135 146.243 79.1415 145.81 79.5974 145.526C80.0608 145.234 80.6924 145.088 81.4922 145.088C81.8808 145.088 82.2882 145.129 82.7142 145.212C83.1478 145.294 83.4729 145.402 83.6896 145.537V146.961C83.4654 146.811 83.1664 146.688 82.7927 146.591C82.4265 146.494 82.0826 146.445 81.7612 146.445C81.5071 146.445 81.309 146.471 81.167 146.523C81.025 146.568 80.954 146.651 80.954 146.77C80.954 146.882 81.025 146.968 81.167 147.028C81.309 147.088 81.5632 147.163 81.9294 147.252C82.1686 147.312 82.2695 147.338 82.2321 147.331C82.7105 147.458 83.0805 147.6 83.3421 147.757C83.6037 147.914 83.7868 148.101 83.8915 148.317C84.0036 148.527 84.0596 148.796 84.0596 149.125C84.0596 149.64 83.8354 150.051 83.3869 150.358C82.9459 150.657 82.3031 150.806 81.4585 150.806Z" fill="#0F3A5F"/>
<path d="M72.1852 145.257H74.0912V145.851C74.3229 145.597 74.6032 145.406 74.9321 145.279C75.2609 145.152 75.6048 145.088 75.9635 145.088C76.7184 145.088 77.2753 145.286 77.6341 145.683C78.0003 146.071 78.1834 146.602 78.1834 147.275V150.638H76.2102V147.533C76.2102 146.927 75.9336 146.624 75.3805 146.624C75.1264 146.624 74.8947 146.684 74.6854 146.804C74.4761 146.916 74.3005 147.092 74.1585 147.331V150.638H72.1852V145.257Z" fill="#0F3A5F"/>
<path d="M67.5686 150.806C66.8959 150.806 66.3502 150.646 65.9317 150.324C65.5206 149.995 65.315 149.539 65.315 148.956C65.315 148.351 65.5131 147.888 65.9092 147.566C66.3129 147.237 66.8884 147.073 67.6358 147.073C67.9273 147.073 68.2188 147.106 68.5103 147.174C68.8018 147.234 69.0522 147.316 69.2615 147.42V147.308C69.2615 146.733 68.7906 146.445 67.8489 146.445C67.1911 146.445 66.5894 146.572 66.0438 146.826V145.47C66.283 145.357 66.5969 145.268 66.9856 145.2C67.3742 145.126 67.7779 145.088 68.1964 145.088C69.198 145.088 69.9529 145.29 70.4612 145.694C70.9769 146.09 71.2348 146.647 71.2348 147.364V150.638H69.3848V150.178C69.183 150.373 68.9289 150.526 68.6225 150.638C68.316 150.75 67.9647 150.806 67.5686 150.806ZM68.1516 149.595C68.3833 149.595 68.6 149.551 68.8018 149.461C69.0037 149.364 69.1569 149.24 69.2615 149.091V148.62C68.9401 148.403 68.5739 148.295 68.1628 148.295C67.9012 148.295 67.6994 148.351 67.5574 148.463C67.4153 148.575 67.3443 148.74 67.3443 148.956C67.3443 149.158 67.4116 149.315 67.5461 149.427C67.6882 149.539 67.89 149.595 68.1516 149.595Z" fill="#0F3A5F"/>
<path d="M61.4225 145.256H63.3285V145.929C63.5378 145.69 63.833 145.507 64.2142 145.38C64.5954 145.245 65.0177 145.178 65.4811 145.178V146.692C64.9878 146.692 64.5505 146.763 64.1693 146.905C63.7956 147.047 63.5378 147.26 63.3957 147.544V150.638H61.4225V145.256Z" fill="#0F3A5F"/>
<path d="M57.4468 144.472H55.2382V142.801H61.6512V144.472H59.4313V150.638H57.4468V144.472Z" fill="#0F3A5F"/>
<path d="M84.9844 132.542H86.9576V137.61L88.7291 135.446H90.9938L88.8524 138.047L91.2853 140.828H89.0206L86.9576 138.462V140.828H84.9844V132.542Z" fill="#0F3A5F"/>
<path d="M78.0319 135.446H79.9379V136.04C80.1696 135.786 80.4499 135.596 80.7787 135.469C81.1076 135.342 81.4514 135.278 81.8102 135.278C82.5651 135.278 83.122 135.476 83.4807 135.872C83.847 136.261 84.0301 136.792 84.0301 137.464V140.828H82.0569V137.722C82.0569 137.117 81.7803 136.814 81.2272 136.814C80.9731 136.814 80.7414 136.874 80.5321 136.993C80.3228 137.106 80.1471 137.281 80.0051 137.52V140.828H78.0319V135.446Z" fill="#0F3A5F"/>
<path d="M73.4152 140.996C72.7425 140.996 72.1969 140.835 71.7783 140.514C71.3673 140.185 71.1617 139.729 71.1617 139.146C71.1617 138.541 71.3598 138.077 71.7559 137.756C72.1595 137.427 72.7351 137.263 73.4825 137.263C73.774 137.263 74.0655 137.296 74.357 137.363C74.6485 137.423 74.8989 137.505 75.1082 137.61V137.498C75.1082 136.922 74.6373 136.635 73.6955 136.635C73.0378 136.635 72.4361 136.762 71.8905 137.016V135.659C72.1296 135.547 72.4436 135.457 72.8322 135.39C73.2209 135.315 73.6245 135.278 74.0431 135.278C75.0447 135.278 75.7996 135.48 76.3078 135.884C76.8236 136.28 77.0814 136.836 77.0814 137.554V140.828H75.2315V140.368C75.0297 140.562 74.7756 140.716 74.4691 140.828C74.1627 140.94 73.8114 140.996 73.4152 140.996ZM73.9983 139.785C74.23 139.785 74.4467 139.74 74.6485 139.651C74.8503 139.553 75.0036 139.43 75.1082 139.281V138.81C74.7868 138.593 74.4206 138.485 74.0095 138.485C73.7479 138.485 73.546 138.541 73.404 138.653C73.262 138.765 73.191 138.929 73.191 139.146C73.191 139.348 73.2583 139.505 73.3928 139.617C73.5348 139.729 73.7366 139.785 73.9983 139.785Z" fill="#0F3A5F"/>
<path d="M63.9407 132.991H67.9096C68.6646 132.991 69.2588 133.178 69.6923 133.552C70.1333 133.925 70.3538 134.46 70.3538 135.155C70.3538 135.484 70.279 135.79 70.1295 136.074C69.9801 136.358 69.767 136.582 69.4905 136.747C69.8717 136.896 70.152 137.113 70.3314 137.397C70.5107 137.674 70.6004 138.036 70.6004 138.485C70.6004 138.963 70.4883 139.382 70.2641 139.74C70.0399 140.092 69.7371 140.361 69.3559 140.548C68.9822 140.734 68.5637 140.828 68.1002 140.828H63.9407V132.991ZM67.4724 136.097C68.0554 136.097 68.3469 135.824 68.3469 135.278C68.3469 134.972 68.2722 134.762 68.1227 134.65C67.9732 134.531 67.7452 134.471 67.4388 134.471H65.9252V136.097H67.4724ZM67.5957 139.348C67.9321 139.348 68.1825 139.284 68.3469 139.157C68.5113 139.03 68.5936 138.806 68.5936 138.485C68.5936 138.163 68.5076 137.932 68.3357 137.79C68.1638 137.64 67.9022 137.565 67.5509 137.565H65.9252V139.348H67.5957Z" fill="#0F3A5F"/>
<defs>
<clipPath id="clip0_105_1014">
<rect width="73.18" height="50.18" fill="white" transform="translate(0.320007 58.1794)"/>
</clipPath>
<clipPath id="clip1_105_1014">
<rect width="73.18" height="50.18" fill="white" transform="translate(81.5 58.1794)"/>
</clipPath>
</defs>
</svg>
