<svg width="399" height="51" viewBox="0 0 399 51" fill="none" xmlns="http://www.w3.org/2000/svg">
<rect x="0.931992" y="0.707031" width="72.1782" height="49.1793" rx="5.5" fill="white" stroke="#D9D9D9"/>
<path fill-rule="evenodd" clip-rule="evenodd" d="M22.6473 34.2H18.2142L14.8898 21.5174C14.732 20.934 14.397 20.4183 13.9042 20.1752C12.6743 19.5643 11.3191 19.0781 9.84062 18.833V18.3447H16.9821C17.9678 18.3447 18.707 19.0781 18.8302 19.93L20.555 29.0784L24.9861 18.3447H29.296L22.6473 34.2ZM31.7601 34.2H27.5733L31.0209 18.3447H35.2077L31.7601 34.2ZM40.6243 22.7371C40.7475 21.8831 41.4867 21.3948 42.3492 21.3948C43.7044 21.2722 45.1807 21.5174 46.4127 22.1262L47.152 18.7125C45.9199 18.2242 44.5647 17.979 43.3348 17.979C39.2712 17.979 36.3143 20.1752 36.3143 23.2232C36.3143 25.542 38.4088 26.7596 39.8873 27.493C41.4867 28.2244 42.1028 28.7127 41.9796 29.444C41.9796 30.5411 40.7475 31.0294 39.5176 31.0294C38.0392 31.0294 36.5607 30.6637 35.2077 30.0528L34.4684 33.4686C35.9469 34.0774 37.5464 34.3226 39.0248 34.3226C43.5812 34.4431 46.4127 32.249 46.4127 28.9558C46.4127 24.8086 40.6243 24.5655 40.6243 22.7371ZM61.0654 34.2L57.741 18.3447H54.1703C53.431 18.3447 52.6918 18.833 52.4454 19.5643L46.2895 34.2H50.5995L51.4598 31.8833H56.7554L57.2482 34.2H61.0654ZM54.7863 22.6145L56.0162 28.5901H52.5686L54.7863 22.6145Z" fill="#172B85"/>
<rect x="82.1102" y="0.707031" width="72.1782" height="49.1793" rx="5.5" fill="white" stroke="#D9D9D9"/>
<path fill-rule="evenodd" clip-rule="evenodd" d="M118.722 36.0789C116.231 38.2289 112.999 39.5267 109.468 39.5267C101.588 39.5267 95.2004 33.065 95.2004 25.0939C95.2004 17.1229 101.588 10.6611 109.468 10.6611C112.999 10.6611 116.231 11.959 118.722 14.1089C121.213 11.959 124.445 10.6611 127.976 10.6611C135.856 10.6611 142.244 17.1229 142.244 25.0939C142.244 33.065 135.856 39.5267 127.976 39.5267C124.445 39.5267 121.213 38.2289 118.722 36.0789Z" fill="#ED0006"/>
<path fill-rule="evenodd" clip-rule="evenodd" d="M118.722 36.0789C121.79 33.4317 123.735 29.4926 123.735 25.0939C123.735 20.6953 121.79 16.7562 118.722 14.1089C121.213 11.959 124.445 10.6611 127.976 10.6611C135.856 10.6611 142.244 17.1229 142.244 25.0939C142.244 33.065 135.856 39.5267 127.976 39.5267C124.445 39.5267 121.213 38.2289 118.722 36.0789Z" fill="#F9A000"/>
<path fill-rule="evenodd" clip-rule="evenodd" d="M118.722 14.1089C121.79 16.7561 123.735 20.6952 123.735 25.0938C123.735 29.4925 121.79 33.4315 118.722 36.0788C115.654 33.4315 113.709 29.4925 113.709 25.0938C113.709 20.6952 115.654 16.7561 118.722 14.1089Z" fill="#FF5E00"/>
<rect x="163.288" y="0.707031" width="72.1782" height="49.1793" rx="5.5" fill="white" stroke="#D9D9D9"/>
<path d="M204.803 25.5622C204.803 33.5332 198.415 39.995 190.536 39.995C182.656 39.995 176.269 33.5332 176.269 25.5622C176.269 17.5912 182.656 11.1294 190.536 11.1294C198.415 11.1294 204.803 17.5912 204.803 25.5622Z" fill="#ED0006"/>
<path d="M223.312 25.5622C223.312 33.5332 216.924 39.995 209.045 39.995C201.165 39.995 194.777 33.5332 194.777 25.5622C194.777 17.5912 201.165 11.1294 209.045 11.1294C216.924 11.1294 223.312 17.5912 223.312 25.5622Z" fill="#0099DF"/>
<path fill-rule="evenodd" clip-rule="evenodd" d="M199.79 36.547C202.858 33.8998 204.803 29.9607 204.803 25.5621C204.803 21.1634 202.858 17.2244 199.79 14.5771C196.723 17.2244 194.777 21.1634 194.777 25.5621C194.777 29.9607 196.723 33.8998 199.79 36.547Z" fill="#6C6BBD"/>
<rect x="244.467" y="0.707031" width="72.1782" height="49.1793" rx="5.5" fill="#1F72CD" stroke="#D9D9D9"/>
<path fill-rule="evenodd" clip-rule="evenodd" d="M257.086 17.979L250.239 33.1305H258.436L259.452 30.7148H261.774L262.79 33.1305H271.812V31.2867L272.616 33.1305H277.283L278.087 31.2478V33.1305H296.85L299.132 30.7775L301.268 33.1305L310.906 33.15L304.037 25.5971L310.906 17.979H301.418L299.197 20.2886L297.128 17.979H276.716L274.963 21.8897L273.169 17.979H264.99V19.7601L264.08 17.979H257.086ZM285.105 20.1306H295.88L299.175 23.6903L302.577 20.1306H305.872L300.865 25.5949L305.872 30.9964H302.427L299.132 27.3953L295.713 30.9964H285.105V20.1306ZM287.766 24.3663V22.3816V22.3797H294.489L297.422 25.5538L294.359 28.7452H287.766V26.5785H293.644V24.3663H287.766ZM258.672 20.1306H262.667L267.208 30.4049V20.1306H271.585L275.093 27.4972L278.326 20.1306H282.681V31.0028H280.031L280.009 22.4834L276.146 31.0028H273.775L269.891 22.4834V31.0028H264.439L263.406 28.5654H257.822L256.791 31.0006H253.87L258.672 20.1306ZM258.776 26.3121L260.615 21.9701L262.453 26.3121H258.776Z" fill="white"/>
<rect x="325.645" y="0.707031" width="72.1782" height="49.1793" rx="5.5" fill="white" stroke="#D9D9D9"/>
<path d="M379.992 29.1041H381.898V29.7768C382.107 29.5376 382.402 29.3545 382.784 29.2274C383.165 29.0929 383.587 29.0256 384.051 29.0256V30.5392C383.557 30.5392 383.12 30.6102 382.739 30.7522C382.365 30.8942 382.107 31.1073 381.965 31.3913V34.4857H379.992V29.1041Z" fill="#0F3A5F"/>
<path d="M376.431 34.654C375.377 34.654 374.547 34.4073 373.942 33.914C373.344 33.4207 373.045 32.7218 373.045 31.8174C373.045 30.928 373.31 30.2254 373.841 29.7096C374.379 29.1939 375.153 28.936 376.162 28.936C376.805 28.936 377.354 29.0594 377.81 29.306C378.273 29.5452 378.621 29.8778 378.853 30.3039C379.092 30.7224 379.212 31.197 379.212 31.7277V32.4565H374.917C374.992 32.7555 375.179 32.9722 375.478 33.1068C375.777 33.2413 376.184 33.3086 376.7 33.3086C377.051 33.3086 377.41 33.2787 377.776 33.2189C378.15 33.1591 378.472 33.0769 378.741 32.9722V34.2728C378.464 34.3849 378.117 34.4746 377.698 34.5418C377.287 34.6166 376.865 34.654 376.431 34.654ZM377.35 31.2232C377.32 30.9317 377.201 30.7037 376.992 30.5393C376.782 30.3749 376.495 30.2926 376.128 30.2926C375.77 30.2926 375.486 30.3786 375.276 30.5505C375.067 30.7149 374.947 30.9392 374.917 31.2232H377.35Z" fill="#0F3A5F"/>
<path d="M369.379 30.472H368.628V29.1042H369.379V28.4315C369.379 27.7064 369.607 27.1459 370.063 26.7497C370.526 26.3461 371.124 26.1443 371.856 26.1443C372.268 26.1443 372.626 26.2116 372.933 26.3461V27.9157C372.723 27.8111 372.488 27.7588 372.226 27.7588C371.927 27.7588 371.707 27.826 371.565 27.9606C371.423 28.0951 371.352 28.3081 371.352 28.5996V29.1042H372.596V30.472H371.352V34.4857H369.379V30.472Z" fill="#0F3A5F"/>
<path d="M365.692 34.654C365.259 34.654 364.807 34.6091 364.336 34.5194C363.865 34.4372 363.491 34.3176 363.215 34.1606V32.7143C363.521 32.8937 363.887 33.0432 364.313 33.1628C364.747 33.2749 365.143 33.331 365.502 33.331C365.763 33.331 365.954 33.3123 366.074 33.2749C366.193 33.2376 366.253 33.1628 366.253 33.0507C366.253 32.961 366.212 32.89 366.13 32.8377C366.055 32.7779 365.913 32.7181 365.704 32.6583C365.502 32.591 365.266 32.52 364.997 32.4453C364.541 32.3107 364.183 32.1725 363.921 32.0304C363.659 31.8884 363.465 31.709 363.338 31.4923C363.211 31.2755 363.147 31.0027 363.147 30.6738C363.147 30.0908 363.375 29.6573 363.831 29.3733C364.295 29.0818 364.926 28.936 365.726 28.936C366.115 28.936 366.522 28.9771 366.948 29.0594C367.382 29.1416 367.707 29.25 367.924 29.3845V30.8084C367.699 30.6589 367.4 30.5356 367.027 30.4384C366.66 30.3412 366.317 30.2926 365.995 30.2926C365.741 30.2926 365.543 30.3188 365.401 30.3711C365.259 30.416 365.188 30.4982 365.188 30.6178C365.188 30.7299 365.259 30.8158 365.401 30.8756C365.543 30.9354 365.797 31.0102 366.163 31.0999C366.402 31.1597 366.503 31.1858 366.466 31.1784C366.944 31.3054 367.314 31.4474 367.576 31.6044C367.838 31.7614 368.021 31.9482 368.125 32.165C368.237 32.3743 368.293 32.6433 368.293 32.9722C368.293 33.488 368.069 33.899 367.621 34.2055C367.18 34.5045 366.537 34.654 365.692 34.654Z" fill="#0F3A5F"/>
<path d="M356.419 29.1042H358.325V29.6984C358.557 29.4443 358.837 29.2537 359.166 29.1266C359.495 28.9996 359.839 28.936 360.197 28.936C360.952 28.936 361.509 29.1341 361.868 29.5303C362.234 29.9189 362.417 30.4496 362.417 31.1223V34.4858H360.444V31.3802C360.444 30.7747 360.168 30.472 359.614 30.472C359.36 30.472 359.129 30.5318 358.919 30.6514C358.71 30.7635 358.534 30.9392 358.392 31.1784V34.4858H356.419V29.1042Z" fill="#0F3A5F"/>
<path d="M351.802 34.654C351.13 34.654 350.584 34.4933 350.166 34.1719C349.754 33.843 349.549 33.387 349.549 32.804C349.549 32.1986 349.747 31.7352 350.143 31.4138C350.547 31.0849 351.122 30.9205 351.87 30.9205C352.161 30.9205 352.453 30.9541 352.744 31.0214C353.036 31.0812 353.286 31.1634 353.495 31.2681V31.1559C353.495 30.5804 353.025 30.2926 352.083 30.2926C351.425 30.2926 350.823 30.4197 350.278 30.6738V29.3172C350.517 29.2051 350.831 29.1154 351.219 29.0482C351.608 28.9734 352.012 28.936 352.43 28.936C353.432 28.936 354.187 29.1378 354.695 29.5415C355.211 29.9376 355.469 30.4944 355.469 31.212V34.4858H353.619V34.0261C353.417 34.2204 353.163 34.3737 352.856 34.4858C352.55 34.5979 352.199 34.654 351.802 34.654ZM352.385 33.4431C352.617 33.4431 352.834 33.3983 353.036 33.3086C353.238 33.2114 353.391 33.0881 353.495 32.9386V32.4677C353.174 32.2509 352.808 32.1426 352.397 32.1426C352.135 32.1426 351.933 32.1986 351.791 32.3107C351.649 32.4228 351.578 32.5873 351.578 32.804C351.578 33.0059 351.645 33.1628 351.78 33.2749C351.922 33.387 352.124 33.4431 352.385 33.4431Z" fill="#0F3A5F"/>
<path d="M345.656 29.1041H347.562V29.7768C347.772 29.5376 348.067 29.3545 348.448 29.2274C348.829 29.0929 349.252 29.0256 349.715 29.0256V30.5392C349.222 30.5392 348.784 30.6102 348.403 30.7522C348.03 30.8942 347.772 31.1073 347.63 31.3913V34.4857H345.656V29.1041Z" fill="#0F3A5F"/>
<path d="M341.681 28.3192H339.472V26.6487H345.885V28.3192H343.665V34.4856H341.681V28.3192Z" fill="#0F3A5F"/>
<path d="M369.218 16.3901H371.192V21.4578L372.963 19.2939H375.228L373.086 21.895L375.519 24.6755H373.254L371.192 22.3099V24.6755H369.218V16.3901Z" fill="#0F3A5F"/>
<path d="M362.266 19.2939H364.172V19.8881C364.403 19.634 364.684 19.4434 365.013 19.3163C365.341 19.1893 365.685 19.1257 366.044 19.1257C366.799 19.1257 367.356 19.3238 367.715 19.7199C368.081 20.1086 368.264 20.6393 368.264 21.312V24.6755H366.291V21.5699C366.291 20.9644 366.014 20.6617 365.461 20.6617C365.207 20.6617 364.975 20.7215 364.766 20.8411C364.557 20.9532 364.381 21.1289 364.239 21.3681V24.6755H362.266V19.2939Z" fill="#0F3A5F"/>
<path d="M357.649 24.8437C356.976 24.8437 356.431 24.683 356.012 24.3616C355.601 24.0327 355.396 23.5767 355.396 22.9937C355.396 22.3883 355.594 21.9249 355.99 21.6035C356.393 21.2746 356.969 21.1102 357.716 21.1102C358.008 21.1102 358.299 21.1438 358.591 21.2111C358.882 21.2709 359.133 21.3531 359.342 21.4577V21.3456C359.342 20.7701 358.871 20.4823 357.929 20.4823C357.272 20.4823 356.67 20.6094 356.124 20.8635V19.5069C356.364 19.3948 356.677 19.3051 357.066 19.2378C357.455 19.1631 357.858 19.1257 358.277 19.1257C359.279 19.1257 360.033 19.3275 360.542 19.7312C361.057 20.1273 361.315 20.6841 361.315 21.4017V24.6755H359.465V24.2158C359.264 24.4101 359.009 24.5634 358.703 24.6755C358.397 24.7876 358.045 24.8437 357.649 24.8437ZM358.232 23.6328C358.464 23.6328 358.681 23.588 358.882 23.4983C359.084 23.4011 359.237 23.2778 359.342 23.1283V22.6574C359.021 22.4406 358.654 22.3323 358.243 22.3323C357.982 22.3323 357.78 22.3883 357.638 22.5004C357.496 22.6125 357.425 22.777 357.425 22.9937C357.425 23.1955 357.492 23.3525 357.627 23.4646C357.769 23.5767 357.971 23.6328 358.232 23.6328Z" fill="#0F3A5F"/>
<path d="M348.175 16.8386H352.144C352.898 16.8386 353.493 17.0255 353.926 17.3992C354.367 17.7729 354.588 18.3073 354.588 19.0025C354.588 19.3313 354.513 19.6378 354.363 19.9218C354.214 20.2058 354.001 20.4301 353.724 20.5945C354.106 20.744 354.386 20.9608 354.565 21.2448C354.745 21.5213 354.834 21.8838 354.834 22.3323C354.834 22.8107 354.722 23.2292 354.498 23.588C354.274 23.9393 353.971 24.2084 353.59 24.3953C353.216 24.5821 352.798 24.6755 352.334 24.6755H348.175V16.8386ZM351.706 19.9442C352.289 19.9442 352.581 19.6714 352.581 19.1258C352.581 18.8193 352.506 18.6101 352.357 18.4979C352.207 18.3784 351.979 18.3186 351.673 18.3186H350.159V19.9442H351.706ZM351.83 23.1956C352.166 23.1956 352.416 23.1321 352.581 23.005C352.745 22.8779 352.827 22.6537 352.827 22.3323C352.827 22.0109 352.741 21.7792 352.57 21.6372C352.398 21.4877 352.136 21.413 351.785 21.413H350.159V23.1956H351.83Z" fill="#0F3A5F"/>
</svg>
