<svg width="480" height="51" viewBox="0 0 480 51" fill="none" xmlns="http://www.w3.org/2000/svg">
<rect x="0.931992" y="0.707031" width="72.1782" height="49.1793" rx="5.5" fill="white" stroke="#D9D9D9"/>
<path fill-rule="evenodd" clip-rule="evenodd" d="M22.6473 34.2H18.2142L14.8898 21.5174C14.732 20.934 14.397 20.4183 13.9042 20.1752C12.6743 19.5643 11.3191 19.0781 9.84062 18.833V18.3447H16.9821C17.9678 18.3447 18.707 19.0781 18.8302 19.93L20.555 29.0784L24.9861 18.3447H29.296L22.6473 34.2ZM31.7601 34.2H27.5733L31.0209 18.3447H35.2077L31.7601 34.2ZM40.6243 22.7371C40.7475 21.8831 41.4867 21.3948 42.3492 21.3948C43.7044 21.2722 45.1807 21.5174 46.4127 22.1262L47.152 18.7125C45.9199 18.2242 44.5647 17.979 43.3348 17.979C39.2712 17.979 36.3143 20.1752 36.3143 23.2232C36.3143 25.542 38.4088 26.7596 39.8873 27.493C41.4867 28.2244 42.1028 28.7127 41.9796 29.444C41.9796 30.5411 40.7475 31.0294 39.5176 31.0294C38.0392 31.0294 36.5607 30.6637 35.2077 30.0528L34.4684 33.4686C35.9469 34.0774 37.5464 34.3226 39.0248 34.3226C43.5812 34.4431 46.4127 32.249 46.4127 28.9558C46.4127 24.8086 40.6243 24.5655 40.6243 22.7371ZM61.0654 34.2L57.741 18.3447H54.1703C53.431 18.3447 52.6918 18.833 52.4454 19.5643L46.2895 34.2H50.5995L51.4598 31.8833H56.7554L57.2482 34.2H61.0654ZM54.7863 22.6145L56.0162 28.5901H52.5686L54.7863 22.6145Z" fill="#172B85"/>
<rect x="82.1102" y="0.707031" width="72.1782" height="49.1793" rx="5.5" fill="white" stroke="#D9D9D9"/>
<path fill-rule="evenodd" clip-rule="evenodd" d="M102.309 32.0728H99.0567C98.8341 32.0728 98.6448 32.2345 98.6101 32.4542L97.2947 40.7945C97.2685 40.9591 97.396 41.1075 97.5629 41.1075H99.1157C99.3382 41.1075 99.5275 40.9457 99.5622 40.7256L99.917 38.4761C99.9513 38.2558 100.141 38.0943 100.363 38.0943H101.393C103.535 38.0943 104.772 37.0575 105.095 35.003C105.24 34.1041 105.101 33.3979 104.68 32.9031C104.218 32.3602 103.398 32.0728 102.309 32.0728ZM102.684 35.119C102.507 36.2861 101.615 36.2861 100.753 36.2861H100.262L100.606 34.1063C100.627 33.9747 100.741 33.8777 100.874 33.8777H101.099C101.686 33.8777 102.24 33.8777 102.527 34.2124C102.697 34.4123 102.75 34.7089 102.684 35.119ZM112.032 35.0815H110.474C110.341 35.0815 110.227 35.1786 110.206 35.3104L110.137 35.746L110.028 35.5882C109.691 35.0987 108.939 34.9352 108.189 34.9352C106.468 34.9352 104.998 36.2388 104.711 38.0674C104.563 38.9795 104.774 39.8517 105.292 40.46C105.766 41.0192 106.445 41.2523 107.253 41.2523C108.64 41.2523 109.409 40.3605 109.409 40.3605L109.34 40.7934C109.314 40.9589 109.441 41.1073 109.607 41.1073H111.01C111.233 41.1073 111.421 40.9455 111.457 40.7254L112.298 35.3945C112.325 35.2305 112.198 35.0815 112.032 35.0815ZM109.861 38.113C109.71 39.0028 109.004 39.6001 108.103 39.6001C107.651 39.6001 107.29 39.4551 107.058 39.1802C106.827 38.9073 106.74 38.5186 106.813 38.0859C106.953 37.2036 107.672 36.5869 108.559 36.5869C109.001 36.5869 109.36 36.7337 109.597 37.011C109.834 37.2912 109.929 37.6821 109.861 38.113ZM118.762 35.0813H120.327C120.546 35.0813 120.674 35.3272 120.549 35.507L115.344 43.0211C115.259 43.1428 115.121 43.2152 114.972 43.2152H113.409C113.189 43.2152 113.06 42.9674 113.188 42.7872L114.809 40.4992L113.085 35.4398C113.025 35.264 113.155 35.0813 113.342 35.0813H114.88C115.08 35.0813 115.256 35.2125 115.314 35.4037L116.229 38.4594L118.388 35.2796C118.472 35.1555 118.612 35.0813 118.762 35.0813Z" fill="#253B80"/>
<path fill-rule="evenodd" clip-rule="evenodd" d="M135.732 40.7945L137.066 32.3016C137.087 32.1698 137.201 32.0727 137.334 32.0723H138.837C139.003 32.0723 139.13 32.221 139.104 32.3857L137.787 40.7256C137.753 40.9457 137.564 41.1074 137.341 41.1074H135.999C135.833 41.1074 135.705 40.9591 135.732 40.7945ZM125.509 32.0727H122.256C122.034 32.0727 121.844 32.2345 121.81 32.4541L120.494 40.7945C120.468 40.9591 120.596 41.1074 120.762 41.1074H122.431C122.586 41.1074 122.719 40.9943 122.743 40.8402L123.116 38.4761C123.15 38.2558 123.34 38.0942 123.562 38.0942H124.591C126.734 38.0942 127.971 37.0574 128.294 35.0029C128.44 34.1041 128.3 33.3978 127.879 32.9031C127.417 32.3601 126.597 32.0727 125.509 32.0727ZM125.884 35.1189C125.707 36.286 124.815 36.286 123.952 36.286H123.462L123.807 34.1063C123.827 33.9747 123.94 33.8776 124.074 33.8776H124.299C124.886 33.8776 125.44 33.8776 125.727 34.2124C125.897 34.4122 125.949 34.7089 125.884 35.1189ZM135.231 35.0815H133.674C133.54 35.0815 133.427 35.1786 133.407 35.3104L133.338 35.7459L133.228 35.5881C132.891 35.0987 132.14 34.9351 131.389 34.9351C129.668 34.9351 128.199 36.2387 127.912 38.0674C127.764 38.9794 127.975 39.8516 128.492 40.4599C128.968 41.0192 129.646 41.2522 130.454 41.2522C131.841 41.2522 132.61 40.3605 132.61 40.3605L132.54 40.7934C132.514 40.9589 132.641 41.1072 132.808 41.1072H134.211C134.433 41.1072 134.622 40.9454 134.657 40.7254L135.499 35.3945C135.525 35.2305 135.398 35.0815 135.231 35.0815ZM133.06 38.1129C132.91 39.0028 132.203 39.6001 131.302 39.6001C130.851 39.6001 130.489 39.455 130.256 39.1801C130.026 38.9072 129.94 38.5186 130.012 38.0859C130.153 37.2036 130.87 36.5869 131.757 36.5869C132.2 36.5869 132.559 36.7337 132.796 37.011C133.034 37.2911 133.128 37.682 133.06 38.1129Z" fill="#179BD7"/>
<path d="M114.346 29.089L114.746 26.5493L113.855 26.5286H109.602L112.558 7.78693C112.567 7.73035 112.597 7.67759 112.64 7.64013C112.684 7.60268 112.74 7.58203 112.798 7.58203H119.969C122.35 7.58203 123.993 8.07747 124.851 9.05533C125.253 9.51407 125.509 9.99344 125.633 10.521C125.763 11.0745 125.766 11.7359 125.639 12.5425L125.629 12.6014V13.1182L126.032 13.346C126.37 13.5257 126.639 13.7314 126.846 13.9669C127.19 14.3591 127.412 14.8576 127.506 15.4486C127.603 16.0564 127.571 16.7797 127.412 17.5985C127.229 18.5405 126.932 19.3608 126.532 20.0321C126.163 20.6506 125.694 21.1635 125.136 21.5612C124.604 21.9389 123.972 22.2257 123.257 22.4092C122.564 22.5895 121.775 22.6806 120.908 22.6806H120.35C119.951 22.6806 119.563 22.8243 119.259 23.082C118.954 23.345 118.752 23.7042 118.69 24.0973L118.648 24.3259L117.942 28.8023L117.91 28.9667C117.901 29.0188 117.887 29.0448 117.865 29.0624C117.846 29.0783 117.819 29.089 117.792 29.089H114.346Z" fill="#253B80"/>
<path d="M126.412 12.6614C126.391 12.7982 126.367 12.9381 126.339 13.0819C125.393 17.9376 122.158 19.615 118.025 19.615H115.921C115.416 19.615 114.99 19.982 114.911 20.4805L113.834 27.3127L113.529 29.2492C113.478 29.5765 113.73 29.8716 114.06 29.8716H117.792C118.234 29.8716 118.609 29.5505 118.679 29.1147L118.716 28.925L119.418 24.4661L119.463 24.2216C119.532 23.7843 119.908 23.4632 120.35 23.4632H120.908C124.524 23.4632 127.354 21.9952 128.182 17.7472C128.527 15.9727 128.348 14.491 127.434 13.4489C127.157 13.1346 126.814 12.8739 126.412 12.6614Z" fill="#179BD7"/>
<path d="M125.423 12.2672C125.278 12.2251 125.129 12.1869 124.976 12.1525C124.822 12.1189 124.665 12.0891 124.503 12.0631C123.936 11.9713 123.314 11.9277 122.648 11.9277H117.027C116.889 11.9277 116.757 11.9591 116.639 12.0157C116.38 12.1403 116.188 12.3857 116.141 12.6862L114.945 20.2599L114.911 20.4808C114.99 19.9824 115.415 19.6154 115.921 19.6154H118.025C122.157 19.6154 125.393 17.9372 126.339 13.0822C126.367 12.9385 126.391 12.7986 126.412 12.6617C126.173 12.5348 125.913 12.4262 125.634 12.3337C125.566 12.3108 125.495 12.2886 125.423 12.2672Z" fill="#222D65"/>
<path d="M116.141 12.6859C116.188 12.3854 116.381 12.14 116.64 12.0161C116.758 11.9596 116.889 11.9282 117.027 11.9282H122.648C123.314 11.9282 123.936 11.9718 124.503 12.0635C124.665 12.0895 124.823 12.1194 124.976 12.153C125.129 12.1874 125.278 12.2256 125.423 12.2677C125.495 12.2891 125.566 12.3112 125.635 12.3334C125.914 12.4259 126.174 12.5353 126.413 12.6614C126.694 10.867 126.411 9.64524 125.441 8.53892C124.371 7.32099 122.44 6.79956 119.97 6.79956H112.798C112.294 6.79956 111.863 7.16653 111.785 7.66579L108.798 26.6001C108.739 26.9747 109.028 27.3127 109.406 27.3127H113.834L114.945 20.2596L116.141 12.6859Z" fill="#253B80"/>
<rect x="163.288" y="0.707031" width="72.1782" height="49.1793" rx="5.5" fill="white" stroke="#D9D9D9"/>
<path fill-rule="evenodd" clip-rule="evenodd" d="M199.9 36.0789C197.409 38.2289 194.177 39.5267 190.646 39.5267C182.766 39.5267 176.379 33.065 176.379 25.0939C176.379 17.1229 182.766 10.6611 190.646 10.6611C194.177 10.6611 197.409 11.959 199.9 14.1089C202.392 11.959 205.623 10.6611 209.155 10.6611C217.034 10.6611 223.422 17.1229 223.422 25.0939C223.422 33.065 217.034 39.5267 209.155 39.5267C205.623 39.5267 202.392 38.2289 199.9 36.0789Z" fill="#ED0006"/>
<path fill-rule="evenodd" clip-rule="evenodd" d="M199.9 36.0789C202.968 33.4317 204.913 29.4926 204.913 25.0939C204.913 20.6953 202.968 16.7562 199.9 14.1089C202.392 11.959 205.623 10.6611 209.155 10.6611C217.034 10.6611 223.422 17.1229 223.422 25.0939C223.422 33.065 217.034 39.5267 209.155 39.5267C205.623 39.5267 202.392 38.2289 199.9 36.0789Z" fill="#F9A000"/>
<path fill-rule="evenodd" clip-rule="evenodd" d="M199.9 14.1089C202.968 16.7561 204.913 20.6952 204.913 25.0938C204.913 29.4925 202.968 33.4315 199.9 36.0788C196.833 33.4315 194.888 29.4925 194.888 25.0938C194.888 20.6952 196.833 16.7561 199.9 14.1089Z" fill="#FF5E00"/>
<rect x="244.467" y="0.707031" width="72.1782" height="49.1793" rx="5.5" fill="white" stroke="#D9D9D9"/>
<path d="M285.981 25.5622C285.981 33.5332 279.594 39.995 271.714 39.995C263.834 39.995 257.447 33.5332 257.447 25.5622C257.447 17.5912 263.834 11.1294 271.714 11.1294C279.594 11.1294 285.981 17.5912 285.981 25.5622Z" fill="#ED0006"/>
<path d="M304.49 25.5622C304.49 33.5332 298.102 39.995 290.223 39.995C282.343 39.995 275.956 33.5332 275.956 25.5622C275.956 17.5912 282.343 11.1294 290.223 11.1294C298.102 11.1294 304.49 17.5912 304.49 25.5622Z" fill="#0099DF"/>
<path fill-rule="evenodd" clip-rule="evenodd" d="M280.968 36.547C284.036 33.8998 285.981 29.9607 285.981 25.5621C285.981 21.1634 284.036 17.2244 280.968 14.5771C277.901 17.2244 275.956 21.1634 275.956 25.5621C275.956 29.9607 277.901 33.8998 280.968 36.547Z" fill="#6C6BBD"/>
<rect x="325.645" y="0.707031" width="72.1782" height="49.1793" rx="5.5" fill="#1F72CD" stroke="#D9D9D9"/>
<path fill-rule="evenodd" clip-rule="evenodd" d="M338.264 17.979L331.417 33.1305H339.614L340.63 30.7148H342.952L343.969 33.1305H352.991V31.2867L353.794 33.1305H358.461L359.265 31.2478V33.1305H378.029L380.31 30.7775L382.446 33.1305L392.084 33.15L385.215 25.5971L392.084 17.979H382.596L380.375 20.2886L378.306 17.979H357.894L356.141 21.8897L354.347 17.979H346.168V19.7601L345.258 17.979H338.264ZM366.283 20.1306H377.058L380.353 23.6903L383.755 20.1306H387.051L382.043 25.5949L387.051 30.9964H383.606L380.31 27.3953L376.891 30.9964H366.283V20.1306ZM368.944 24.3663V22.3816V22.3797H375.667L378.601 25.5538L375.537 28.7452H368.944V26.5785H374.822V24.3663H368.944ZM339.85 20.1306H343.845L348.387 30.4049V20.1306H352.763L356.271 27.4972L359.504 20.1306H363.859V31.0028H361.209L361.187 22.4834L357.324 31.0028H354.954L351.069 22.4834V31.0028H345.617L344.584 28.5654H339.001L337.969 31.0006H335.048L339.85 20.1306ZM339.954 26.3121L341.793 21.9701L343.631 26.3121H339.954Z" fill="white"/>
<rect x="406.823" y="0.707031" width="72.1782" height="49.1793" rx="5.5" fill="white" stroke="#D9D9D9"/>
<path d="M461.17 29.1041H463.076V29.7768C463.285 29.5376 463.581 29.3545 463.962 29.2274C464.343 29.0929 464.765 29.0256 465.229 29.0256V30.5392C464.735 30.5392 464.298 30.6102 463.917 30.7522C463.543 30.8942 463.285 31.1073 463.143 31.3913V34.4857H461.17V29.1041Z" fill="#0F3A5F"/>
<path d="M457.609 34.654C456.555 34.654 455.726 34.4073 455.12 33.914C454.522 33.4207 454.223 32.7218 454.223 31.8174C454.223 30.928 454.489 30.2254 455.019 29.7096C455.558 29.1939 456.331 28.936 457.34 28.936C457.983 28.936 458.532 29.0594 458.988 29.306C459.452 29.5452 459.799 29.8778 460.031 30.3039C460.27 30.7224 460.39 31.197 460.39 31.7277V32.4565H456.096C456.17 32.7555 456.357 32.9722 456.656 33.1068C456.955 33.2413 457.363 33.3086 457.878 33.3086C458.23 33.3086 458.588 33.2787 458.955 33.2189C459.328 33.1591 459.65 33.0769 459.919 32.9722V34.2728C459.642 34.3849 459.295 34.4746 458.876 34.5418C458.465 34.6166 458.043 34.654 457.609 34.654ZM458.529 31.2232C458.499 30.9317 458.379 30.7037 458.17 30.5393C457.961 30.3749 457.673 30.2926 457.307 30.2926C456.948 30.2926 456.664 30.3786 456.454 30.5505C456.245 30.7149 456.126 30.9392 456.096 31.2232H458.529Z" fill="#0F3A5F"/>
<path d="M450.557 30.472H449.806V29.1042H450.557V28.4315C450.557 27.7064 450.785 27.1459 451.241 26.7497C451.704 26.3461 452.302 26.1443 453.035 26.1443C453.446 26.1443 453.805 26.2116 454.111 26.3461V27.9157C453.902 27.8111 453.666 27.7588 453.405 27.7588C453.106 27.7588 452.885 27.826 452.743 27.9606C452.601 28.0951 452.53 28.3081 452.53 28.5996V29.1042H453.775V30.472H452.53V34.4857H450.557V30.472Z" fill="#0F3A5F"/>
<path d="M446.871 34.654C446.437 34.654 445.985 34.6091 445.514 34.5194C445.043 34.4372 444.669 34.3176 444.393 34.1606V32.7143C444.699 32.8937 445.066 33.0432 445.492 33.1628C445.925 33.2749 446.321 33.331 446.68 33.331C446.942 33.331 447.132 33.3123 447.252 33.2749C447.371 33.2376 447.431 33.1628 447.431 33.0507C447.431 32.961 447.39 32.89 447.308 32.8377C447.233 32.7779 447.091 32.7181 446.882 32.6583C446.68 32.591 446.445 32.52 446.176 32.4453C445.72 32.3107 445.361 32.1725 445.099 32.0304C444.838 31.8884 444.643 31.709 444.516 31.4923C444.389 31.2755 444.326 31.0027 444.326 30.6738C444.326 30.0908 444.554 29.6573 445.01 29.3733C445.473 29.0818 446.105 28.936 446.904 28.936C447.293 28.936 447.7 28.9771 448.126 29.0594C448.56 29.1416 448.885 29.25 449.102 29.3845V30.8084C448.878 30.6589 448.579 30.5356 448.205 30.4384C447.839 30.3412 447.495 30.2926 447.173 30.2926C446.919 30.2926 446.721 30.3188 446.579 30.3711C446.437 30.416 446.366 30.4982 446.366 30.6178C446.366 30.7299 446.437 30.8158 446.579 30.8756C446.721 30.9354 446.975 31.0102 447.342 31.0999C447.581 31.1597 447.682 31.1858 447.644 31.1784C448.123 31.3054 448.493 31.4474 448.754 31.6044C449.016 31.7614 449.199 31.9482 449.304 32.165C449.416 32.3743 449.472 32.6433 449.472 32.9722C449.472 33.488 449.248 33.899 448.799 34.2055C448.358 34.5045 447.715 34.654 446.871 34.654Z" fill="#0F3A5F"/>
<path d="M437.597 29.1042H439.503V29.6984C439.735 29.4443 440.015 29.2537 440.344 29.1266C440.673 28.9996 441.017 28.936 441.376 28.936C442.131 28.936 442.687 29.1341 443.046 29.5303C443.412 29.9189 443.596 30.4496 443.596 31.1223V34.4858H441.622V31.3802C441.622 30.7747 441.346 30.472 440.793 30.472C440.539 30.472 440.307 30.5318 440.098 30.6514C439.888 30.7635 439.713 30.9392 439.571 31.1784V34.4858H437.597V29.1042Z" fill="#0F3A5F"/>
<path d="M432.981 34.654C432.308 34.654 431.762 34.4933 431.344 34.1719C430.933 33.843 430.727 33.387 430.727 32.804C430.727 32.1986 430.925 31.7352 431.321 31.4138C431.725 31.0849 432.3 30.9205 433.048 30.9205C433.339 30.9205 433.631 30.9541 433.922 31.0214C434.214 31.0812 434.464 31.1634 434.674 31.2681V31.1559C434.674 30.5804 434.203 30.2926 433.261 30.2926C432.603 30.2926 432.001 30.4197 431.456 30.6738V29.3172C431.695 29.2051 432.009 29.1154 432.398 29.0482C432.786 28.9734 433.19 28.936 433.608 28.936C434.61 28.936 435.365 29.1378 435.873 29.5415C436.389 29.9376 436.647 30.4944 436.647 31.212V34.4858H434.797V34.0261C434.595 34.2204 434.341 34.3737 434.035 34.4858C433.728 34.5979 433.377 34.654 432.981 34.654ZM433.564 33.4431C433.795 33.4431 434.012 33.3983 434.214 33.3086C434.416 33.2114 434.569 33.0881 434.674 32.9386V32.4677C434.352 32.2509 433.986 32.1426 433.575 32.1426C433.313 32.1426 433.111 32.1986 432.969 32.3107C432.827 32.4228 432.756 32.5873 432.756 32.804C432.756 33.0059 432.824 33.1628 432.958 33.2749C433.1 33.387 433.302 33.4431 433.564 33.4431Z" fill="#0F3A5F"/>
<path d="M426.835 29.1041H428.741V29.7768C428.95 29.5376 429.245 29.3545 429.626 29.2274C430.007 29.0929 430.43 29.0256 430.893 29.0256V30.5392C430.4 30.5392 429.963 30.6102 429.581 30.7522C429.208 30.8942 428.95 31.1073 428.808 31.3913V34.4857H426.835V29.1041Z" fill="#0F3A5F"/>
<path d="M422.859 28.3192H420.65V26.6487H427.063V28.3192H424.843V34.4856H422.859V28.3192Z" fill="#0F3A5F"/>
<path d="M450.396 16.3901H452.37V21.4578L454.141 19.2939H456.406L454.264 21.895L456.697 24.6755H454.433L452.37 22.3099V24.6755H450.396V16.3901Z" fill="#0F3A5F"/>
<path d="M443.444 19.2939H445.35V19.8881C445.582 19.634 445.862 19.4434 446.191 19.3163C446.52 19.1893 446.864 19.1257 447.222 19.1257C447.977 19.1257 448.534 19.3238 448.893 19.7199C449.259 20.1086 449.442 20.6393 449.442 21.312V24.6755H447.469V21.5699C447.469 20.9644 447.192 20.6617 446.639 20.6617C446.385 20.6617 446.153 20.7215 445.944 20.8411C445.735 20.9532 445.559 21.1289 445.417 21.3681V24.6755H443.444V19.2939Z" fill="#0F3A5F"/>
<path d="M438.827 24.8437C438.155 24.8437 437.609 24.683 437.19 24.3616C436.779 24.0327 436.574 23.5767 436.574 22.9937C436.574 22.3883 436.772 21.9249 437.168 21.6035C437.572 21.2746 438.147 21.1102 438.895 21.1102C439.186 21.1102 439.478 21.1438 439.769 21.2111C440.061 21.2709 440.311 21.3531 440.52 21.4577V21.3456C440.52 20.7701 440.049 20.4823 439.108 20.4823C438.45 20.4823 437.848 20.6094 437.303 20.8635V19.5069C437.542 19.3948 437.856 19.3051 438.244 19.2378C438.633 19.1631 439.037 19.1257 439.455 19.1257C440.457 19.1257 441.212 19.3275 441.72 19.7312C442.236 20.1273 442.494 20.6841 442.494 21.4017V24.6755H440.644V24.2158C440.442 24.4101 440.188 24.5634 439.881 24.6755C439.575 24.7876 439.224 24.8437 438.827 24.8437ZM439.41 23.6328C439.642 23.6328 439.859 23.588 440.061 23.4983C440.262 23.4011 440.416 23.2778 440.52 23.1283V22.6574C440.199 22.4406 439.833 22.3323 439.422 22.3323C439.16 22.3323 438.958 22.3883 438.816 22.5004C438.674 22.6125 438.603 22.777 438.603 22.9937C438.603 23.1955 438.67 23.3525 438.805 23.4646C438.947 23.5767 439.149 23.6328 439.41 23.6328Z" fill="#0F3A5F"/>
<path d="M429.353 16.8386H433.322C434.077 16.8386 434.671 17.0255 435.104 17.3992C435.545 17.7729 435.766 18.3073 435.766 19.0025C435.766 19.3313 435.691 19.6378 435.542 19.9218C435.392 20.2058 435.179 20.4301 434.903 20.5945C435.284 20.744 435.564 20.9608 435.743 21.2448C435.923 21.5213 436.013 21.8838 436.013 22.3323C436.013 22.8107 435.9 23.2292 435.676 23.588C435.452 23.9393 435.149 24.2084 434.768 24.3953C434.394 24.5821 433.976 24.6755 433.512 24.6755H429.353V16.8386ZM432.885 19.9442C433.468 19.9442 433.759 19.6714 433.759 19.1258C433.759 18.8193 433.684 18.6101 433.535 18.4979C433.385 18.3784 433.157 18.3186 432.851 18.3186H431.337V19.9442H432.885ZM433.008 23.1956C433.344 23.1956 433.595 23.1321 433.759 23.005C433.923 22.8779 434.006 22.6537 434.006 22.3323C434.006 22.0109 433.92 21.7792 433.748 21.6372C433.576 21.4877 433.314 21.413 432.963 21.413H431.337V23.1956H433.008Z" fill="#0F3A5F"/>
</svg>
